<?xml version="1.0" standalone="no"?>
<!DOCTYPE svg PUBLIC "-//W3C//DTD SVG 20010904//EN"
 "http://www.w3.org/TR/2001/REC-SVG-20010904/DTD/svg10.dtd">
<svg version="1.0" xmlns="http://www.w3.org/2000/svg"
 width="1024.000000pt" height="1024.000000pt" viewBox="0 0 1024.000000 1024.000000"
 preserveAspectRatio="xMidYMid meet">

<g transform="translate(0.000000,1024.000000) scale(0.100000,-0.100000)"
fill="#000000" stroke="none">
<path d="M2057 8158 c-58 -95 -108 -180 -111 -188 -3 -9 43 -93 108 -200 l114
-185 211 -3 c191 -2 212 -1 226 15 8 10 52 81 99 158 l84 140 504 3 c276 1
517 0 534 -3 27 -5 40 -21 110 -137 43 -73 80 -135 82 -140 2 -4 -9 -23 -23
-43 l-27 -35 -603 0 c-511 0 -604 -2 -614 -14 -13 -15 -234 -393 -479 -816
-74 -129 -135 -239 -135 -245 0 -8 266 -470 543 -940 l76 -130 640 -3 640 -2
30 52 c17 29 109 186 204 348 95 162 222 381 283 485 l109 190 -24 45 c-13 25
-146 253 -296 508 -150 254 -272 465 -272 467 0 3 12 23 26 45 l27 40 168 0
169 0 34 53 c74 117 196 323 196 332 0 6 -50 91 -109 190 l-109 180 -218 0
-219 0 -90 -148 c-50 -81 -95 -151 -101 -157 -10 -10 -1104 -19 -1104 -9 0 13
28 17 39 6 6 -6 11 -8 11 -4 0 7 -142 246 -172 290 l-19 27 -218 0 -218 0
-106 -172z m287 145 l-171 -3 -9 -32 c-5 -18 -17 -32 -27 -34 -10 -1 -16 3
-14 9 3 7 10 11 16 9 7 -1 10 2 6 7 -3 6 0 19 7 31 12 19 21 20 188 18 l175
-2 -171 -3z m270 -25 c9 -17 14 -33 11 -36 -2 -3 -8 3 -11 12 -5 14 -9 15 -16
4 -7 -9 -8 -8 -4 5 9 28 -4 41 -20 20 -12 -16 -13 -16 -14 -1 0 9 -6 19 -12
21 -7 3 1 6 19 6 26 1 34 -5 47 -31z m1877 -10 c42 -68 60 -108 49 -108 -5 0
-10 6 -10 13 0 9 -3 8 -9 -2 -5 -7 -13 -11 -19 -7 -17 10 -24 -11 -12 -34 17
-32 2 -23 -19 11 -11 18 -17 38 -14 46 4 9 8 11 12 4 10 -15 51 -2 44 15 -3 8
-9 14 -15 14 -5 0 -6 -5 -2 -12 5 -8 0 -9 -15 -5 -15 4 -24 0 -28 -11 -6 -13
-8 -13 -14 4 -4 10 -8 26 -8 34 -1 13 0 13 9 0 6 -10 10 -11 10 -2 0 6 7 12
15 12 19 0 20 34 1 49 -15 12 -385 15 -387 3 0 -4 -2 -19 -4 -35 -2 -15 0 -25
5 -22 4 2 -4 -17 -18 -44 -15 -27 -30 -47 -34 -45 -4 3 -6 -1 -3 -8 3 -7 -6
-26 -20 -42 -14 -16 -25 -33 -25 -38 0 -5 -11 -26 -25 -46 -14 -20 -25 -32
-25 -26 0 6 9 23 20 37 11 14 20 29 20 34 0 5 8 20 17 33 10 14 16 35 15 47
-2 14 3 23 18 28 27 9 49 54 40 85 -4 14 -3 30 2 37 7 8 3 10 -13 6 -15 -4
-20 -2 -15 5 4 7 77 11 219 12 l212 0 26 -42z m-460 -2 c-9 -11 -9 -15 1 -19
8 -4 7 -6 -4 -6 -18 -1 -24 19 -11 32 13 13 25 7 14 -7z m-1650 -46 l159 0 37
-61 c21 -34 57 -92 81 -130 l43 -68 -83 -135 -83 -135 -155 -1 c-85 -1 -165
-3 -176 -6 -18 -3 -22 1 -20 21 l1 25 17 -23 c39 -50 13 6 -57 123 -41 69 -75
128 -75 132 0 4 29 54 63 110 79 127 90 148 80 148 -5 0 -17 -16 -27 -35 -11
-19 -23 -35 -28 -35 -4 0 -8 -6 -8 -12 0 -7 -16 -38 -36 -68 -20 -33 -34 -47
-33 -35 3 37 -1 45 -21 45 -12 0 -25 -10 -32 -25 -6 -14 -15 -25 -20 -25 -4 0
-8 -5 -8 -11 0 -5 6 -7 13 -3 10 6 10 4 0 -7 -7 -7 -13 -22 -13 -33 1 -21 1
-21 15 -2 8 11 15 17 15 13 0 -5 -10 -21 -22 -37 -16 -23 -25 -27 -35 -19 -7
6 -13 17 -13 25 0 12 132 237 152 259 5 6 5 -2 -1 -16 -5 -15 -7 -30 -3 -34 4
-4 0 -5 -8 -3 -8 2 -15 -4 -15 -13 0 -9 -6 -23 -13 -32 -15 -17 0 -33 20 -21
7 4 8 3 4 -4 -10 -16 9 -15 22 1 6 6 13 24 17 40 4 15 11 27 16 27 5 0 21 19
36 42 14 24 28 37 31 30 3 -9 45 -12 163 -12z m82 13 c-40 -2 -107 -2 -150 0
-43 1 -10 3 72 3 83 0 118 -2 78 -3z m1880 0 c-46 -2 -120 -2 -165 0 -46 1 -9
3 82 3 91 0 128 -2 83 -3z m-1757 -15 c3 -4 -1 -5 -10 -4 -8 1 -18 5 -22 8 -3
4 1 5 10 4 8 -1 18 -5 22 -8z m119 -82 c30 -52 55 -96 55 -98 0 -2 -9 -4 -19
-4 -14 0 -17 4 -10 12 6 7 1 20 -16 38 -13 14 -19 26 -13 26 6 0 1 12 -13 26
-13 14 -22 27 -19 29 3 2 1 7 -4 12 -5 4 -6 3 -3 -3 4 -7 -2 -14 -13 -17 -15
-4 -18 -11 -14 -33 l4 -29 -20 25 c-26 33 -51 80 -41 80 4 0 13 -11 19 -25 12
-26 42 -25 42 1 0 8 5 14 12 14 9 0 9 3 0 12 -12 12 -16 28 -7 28 2 0 29 -42
60 -94z m1301 69 c1 -8 -4 -15 -12 -15 -8 0 -11 -6 -8 -15 4 -9 0 -15 -9 -15
-8 0 -25 -12 -37 -27 l-22 -28 17 29 c10 16 27 44 38 63 19 34 29 36 33 8z
m389 9 c20 -5 156 -219 163 -256 2 -10 -33 -76 -78 -148 l-82 -130 -143 0
-143 0 -83 136 c-45 75 -82 142 -82 148 0 16 133 228 152 244 15 12 249 17
296 6z m-2245 -28 c0 -3 -4 -8 -10 -11 -5 -3 -10 -1 -10 4 0 6 5 11 10 11 6 0
10 -2 10 -4z m2444 -93 c20 -35 22 -43 8 -30 -10 9 -24 17 -30 17 -7 0 -12 14
-12 30 0 17 2 30 4 30 2 0 16 -21 30 -47z m-49 -21 c-2 -2 1 -18 6 -35 8 -30
7 -31 -7 -12 -9 11 -22 32 -29 46 -14 26 -14 27 10 16 13 -7 22 -13 20 -15z
m-636 1 c-12 -15 -12 -16 7 -11 12 3 28 1 35 -4 11 -8 10 -9 -3 -4 -12 4 -18
0 -19 -12 0 -10 -3 -12 -6 -4 -2 6 -9 12 -14 12 -6 0 -6 -8 1 -19 14 -27 14
-27 -25 -28 -20 0 -32 4 -29 9 3 5 13 7 21 4 11 -4 13 -1 8 15 -4 13 0 27 11
40 21 23 32 25 13 2z m-1211 -14 c8 -12 9 -18 3 -15 -5 4 -12 2 -16 -4 -3 -5
-1 -10 4 -10 6 0 11 -6 11 -14 0 -8 5 -16 12 -18 9 -3 9 -6 0 -12 -7 -4 -21
11 -37 44 -23 45 -24 50 -8 50 10 0 24 -9 31 -21z m1947 -57 c-8 -8 -25 10
-25 26 0 13 2 13 14 -4 8 -10 13 -21 11 -22z m-2587 -22 c-7 -10 -14 -18 -15
-16 -6 6 9 36 18 36 5 0 4 -9 -3 -20z m1160 3 c-75 -2 -201 -2 -280 0 -79 1
-17 3 137 3 154 0 218 -2 143 -3z m515 0 c-67 -2 -179 -2 -250 0 -70 1 -15 3
122 3 138 0 195 -2 128 -3z m927 -58 c-6 -18 -15 -35 -19 -37 -4 -2 -22 -29
-40 -60 -18 -32 -34 -58 -36 -58 -2 0 -3 12 -1 28 1 15 7 26 12 25 13 -2 70
106 66 125 -2 8 0 21 3 31 6 14 7 14 16 -2 7 -12 7 -29 -1 -52z m-701 -16 c17
-28 31 -56 31 -62 0 -7 -12 6 -25 28 -14 22 -29 40 -35 40 -5 0 -10 3 -10 8 0
4 0 14 0 22 0 23 5 19 39 -36z m628 31 c-1 -22 -17 -28 -17 -7 0 12 9 27 16
27 2 0 2 -9 1 -20z m-1881 -26 c-9 -8 -14 -19 -12 -23 3 -4 -1 -8 -9 -8 -13 0
-13 4 -2 21 7 12 17 28 22 36 6 10 10 10 13 2 2 -6 -4 -19 -12 -28z m1078 5
c53 -1 94 -4 92 -7 -3 -3 5 -14 19 -26 16 -14 21 -26 16 -35 -9 -14 -14 -10
-36 34 -10 20 -23 20 -545 25 l-535 5 440 5 c242 3 443 4 446 3 3 -1 49 -3
103 -4z m-1758 -21 c4 -7 3 -8 -4 -4 -17 10 -15 -6 3 -30 22 -29 18 -40 -5
-11 -21 26 -27 57 -11 57 6 0 13 -5 17 -12z m722 -37 c-7 -11 -17 -21 -22 -21
-6 0 -5 5 2 12 7 7 12 21 11 33 0 16 -4 13 -16 -12 -9 -18 -21 -33 -25 -33 -5
0 -6 5 -3 10 3 6 0 10 -7 10 -7 1 -2 7 12 15 14 8 21 15 15 15 -5 0 -3 5 5 10
10 6 19 5 28 -4 12 -11 12 -17 0 -35z m1839 34 c4 -4 2 -5 -5 -1 -7 4 -15 0
-19 -11 -4 -10 -15 -26 -26 -35 -11 -10 -16 -22 -11 -29 4 -8 3 -9 -4 -5 -6 4
-18 -5 -26 -21 -8 -15 -15 -23 -15 -18 0 10 15 39 54 101 18 31 36 37 52 19z
m-2450 -78 c18 -28 30 -53 26 -56 -3 -3 -7 -1 -9 4 -14 37 -47 76 -59 71 -12
-4 -15 3 -14 32 0 41 -5 46 56 -51z m530 38 c0 -8 -4 -12 -9 -9 -5 3 -6 10 -3
15 9 13 12 11 12 -6z m1268 -44 c3 -11 16 -34 28 -53 23 -33 40 -68 33 -68 -3
0 -22 32 -45 70 -22 39 -36 70 -31 70 5 0 11 -9 15 -19z m89 -13 c20 -38 20
-44 2 -29 -11 9 -15 9 -19 -1 -3 -7 -4 4 -3 24 0 21 2 38 3 38 1 0 9 -14 17
-32z m-1415 -37 c-18 -28 -34 -49 -37 -47 -2 3 11 28 29 55 42 66 49 59 8 -8z
m70 -18 c-32 -54 -36 -58 -36 -29 0 14 5 26 11 26 6 0 17 9 24 20 23 37 24 21
1 -17z m-542 -3 c4 -13 3 -13 -6 0 -17 25 -22 5 -6 -26 8 -16 15 -22 15 -14 0
13 1 13 10 0 5 -9 5 -19 -1 -26 -7 -8 -6 -14 3 -17 9 -4 9 -6 1 -6 -7 -1 -18
10 -25 23 -7 13 -21 37 -30 53 l-17 30 26 -1 c15 -1 28 -8 30 -16z m2341 -2
c-2 -13 -10 -23 -18 -23 -8 0 -14 -9 -13 -18 0 -10 -2 -16 -5 -13 -3 3 -12 0
-21 -7 -14 -11 -14 -10 0 13 9 14 21 35 28 48 6 12 16 22 22 22 6 0 9 -10 7
-22z m-2298 8 c0 -3 -4 -8 -10 -11 -5 -3 -10 -1 -10 4 0 6 5 11 10 11 6 0 10
-2 10 -4z m1889 -30 c-3 -3 -11 5 -18 17 -13 21 -12 21 5 5 10 -10 16 -20 13
-22z m476 14 c-3 -5 -12 -7 -20 -3 -21 7 -19 13 6 13 11 0 18 -4 14 -10z m-40
-63 c-40 -71 -59 -85 -109 -85 -25 0 -58 4 -73 8 -25 8 -23 9 17 9 108 -2 108
-2 135 41 14 23 23 46 19 52 -4 6 -3 8 4 4 6 -3 13 -2 17 4 3 5 8 10 10 10 2
0 -7 -19 -20 -43z m-465 8 c0 -7 -30 -13 -34 -7 -3 4 4 9 15 9 10 1 19 0 19
-2z m-1692 -12 c-21 -2 -55 -2 -75 0 -21 2 -4 4 37 4 41 0 58 -2 38 -4z m85 0
c-7 -2 -21 -2 -30 0 -10 3 -4 5 12 5 17 0 24 -2 18 -5z m75 0 c-10 -2 -28 -2
-40 0 -13 2 -5 4 17 4 22 1 32 -1 23 -4z m1863 -3 c-37 -9 -249 -6 -258 4 -4
3 61 6 143 5 97 -1 137 -4 115 -9z m-1773 -50 c-7 -11 -20 -20 -28 -20 -11 1
-8 6 9 20 30 25 34 25 19 0z m-403 -19 c-6 -5 -25 10 -25 20 0 5 6 4 14 -3 8
-7 12 -15 11 -17z m153 2 c-21 -2 -55 -2 -75 0 -21 2 -4 4 37 4 41 0 58 -2 38
-4z m160 0 c-21 -2 -55 -2 -75 0 -21 2 -4 4 37 4 41 0 58 -2 38 -4z m1612 -8
c-7 -9 -15 -13 -19 -10 -3 3 1 10 9 15 21 14 24 12 10 -5z m164 7 c3 -5 -28
-9 -69 -9 -41 0 -75 4 -75 9 0 11 137 11 144 0z m-261 -29 c-7 -2 -13 -14 -14
-26 0 -12 -3 -16 -6 -9 -7 18 4 42 19 41 10 0 10 -2 1 -6z m72 -13 c-3 -5 -11
-10 -16 -10 -6 0 -7 5 -4 10 3 6 11 10 16 10 6 0 7 -4 4 -10z m-32 -35 c-3 -9
-8 -14 -10 -11 -3 3 -2 9 2 15 9 16 15 13 8 -4z m-1196 -1 c-3 -3 -12 -4 -19
-1 -8 3 -5 6 6 6 11 1 17 -2 13 -5z m203 -4 c0 -5 -5 -10 -11 -10 -5 0 -7 5
-4 10 3 6 8 10 11 10 2 0 4 -4 4 -10z m100 6 c0 -11 -19 -15 -25 -6 -3 5 1 10
9 10 9 0 16 -2 16 -4z m147 -2 c-3 -3 -12 -4 -19 -1 -8 3 -5 6 6 6 11 1 17 -2
13 -5z m173 -4 c0 -5 -2 -10 -4 -10 -3 0 -8 5 -11 10 -3 6 -1 10 4 10 6 0 11
-4 11 -10z m35 0 c3 -6 -1 -7 -9 -4 -18 7 -21 14 -7 14 6 0 13 -4 16 -10z
m159 -2 c-3 -4 -11 -5 -19 -1 -21 7 -19 12 4 10 11 0 18 -5 15 -9z m-464 -2
c0 -3 -4 -8 -10 -11 -5 -3 -10 -1 -10 4 0 6 5 11 10 11 6 0 10 -2 10 -4z
m-239 -23 c13 -17 13 -17 -6 -3 -11 8 -22 16 -24 17 -2 2 0 3 6 3 6 0 17 -8
24 -17z m-231 -29 c0 -8 -5 -12 -10 -9 -6 4 -8 11 -5 16 9 14 15 11 15 -7z
m1340 -39 c0 -12 -20 6 -31 28 l-11 22 21 -22 c11 -12 21 -25 21 -28z m-1374
0 c-1 -8 -5 -18 -9 -21 -4 -4 -2 -13 4 -20 8 -10 6 -12 -9 -9 -21 4 -51 -46
-46 -78 2 -13 -2 -17 -13 -13 -11 5 -13 2 -9 -9 4 -11 2 -14 -6 -9 -8 5 -9 2
-5 -9 4 -10 2 -16 -4 -14 -6 1 -16 -7 -22 -18 -7 -11 -22 -34 -34 -52 -26 -36
-30 -51 -9 -34 12 10 13 8 9 -9 -3 -11 -12 -19 -20 -18 -17 4 -80 -110 -74
-135 1 -5 -3 -6 -8 -3 -9 6 -26 -22 -23 -36 1 -5 -2 -8 -7 -8 -5 0 -11 -9 -14
-20 -3 -11 -11 -20 -17 -20 -9 0 -8 6 2 23 14 20 98 167 138 238 28 52 84 144
89 149 3 3 19 30 35 60 40 75 57 97 52 65z m1328 7 c3 -5 -1 -9 -9 -9 -8 0
-12 4 -9 9 3 4 7 8 9 8 2 0 6 -4 9 -8z m-329 -12 c-3 -5 -12 -10 -18 -10 -7 0
-6 4 3 10 19 12 23 12 15 0z m409 -52 c18 -35 14 -52 -4 -19 -6 12 -17 21 -25
21 -15 0 -20 21 -9 33 10 10 21 0 38 -35z m-294 -12 c0 -2 -9 -2 -20 1 -11 3
-20 9 -20 15 0 5 9 4 20 -2 11 -6 20 -12 20 -14z m-330 -12 c0 -8 -19 -13 -24
-6 -3 5 1 9 9 9 8 0 15 -2 15 -3z m220 2 c0 -2 -7 -7 -16 -10 -8 -3 -12 -2 -9
4 6 10 25 14 25 6z m160 -6 c0 -5 -5 -10 -11 -10 -5 0 -7 5 -4 10 3 6 8 10 11
10 2 0 4 -4 4 -10z m-112 -34 c-1 -14 -5 -23 -9 -20 -7 4 0 44 7 44 2 0 3 -11
2 -24z m419 -45 c21 -32 27 -51 20 -54 -20 -7 -36 4 -30 20 5 12 3 14 -8 8 -8
-4 -11 -5 -7 -1 3 4 0 26 -7 47 -18 50 -7 44 32 -20z m-1286 12 c13 -16 12
-17 -3 -4 -10 7 -18 15 -18 17 0 8 8 3 21 -13z m1132 2 c-3 -9 -8 -14 -10 -11
-3 3 -2 9 2 15 9 16 15 13 8 -4z m-1060 -30 c-3 -9 -8 -14 -10 -11 -3 3 -2 9
2 15 9 16 15 13 8 -4z m373 -11 c1 -9 0 -13 -4 -10 -3 4 -7 14 -8 22 -1 9 0
13 4 10 3 -4 7 -14 8 -22z m-432 -2 c3 -5 -1 -9 -9 -9 -8 0 -12 4 -9 9 3 4 7
8 9 8 2 0 6 -4 9 -8z m1126 -25 c8 -3 3 -5 -11 -4 -18 1 -25 6 -21 15 2 7 8 9
11 4 3 -5 13 -12 21 -15z m240 -103 c17 -31 29 -58 26 -61 -3 -3 -8 2 -12 11
-3 9 -11 13 -17 9 -6 -3 -7 -1 -3 5 4 6 0 24 -9 39 l-16 28 6 -35 c5 -29 4
-32 -5 -17 -7 10 -9 29 -6 43 4 14 2 24 -4 24 -5 0 -10 5 -10 11 0 20 18 -1
50 -57z m-1312 11 c-3 -3 -9 2 -12 12 -6 14 -5 15 5 6 7 -7 10 -15 7 -18z
m152 21 c0 -2 -8 -10 -17 -17 -16 -13 -17 -12 -4 4 13 16 21 21 21 13z m-565
-66 c-3 -5 -12 -10 -18 -10 -7 0 -6 4 3 10 19 12 23 12 15 0z m1162 -22 c-3
-8 -6 -5 -6 6 -1 11 2 17 5 13 3 -3 4 -12 1 -19z m621 -40 c14 -28 40 -73 172
-298 140 -238 134 -225 120 -260 -7 -16 -19 -35 -27 -42 -11 -9 -9 0 5 26 18
34 19 43 8 70 -9 22 -19 31 -34 30 -25 -2 -28 6 -10 24 8 8 9 15 3 20 -6 4
-19 24 -29 44 -10 21 -22 35 -26 33 -4 -3 -7 1 -6 8 0 6 -3 12 -9 12 -5 0 -9
-3 -7 -7 1 -5 -3 -8 -9 -8 -6 0 -8 13 -5 32 3 22 -3 44 -21 75 -13 24 -29 43
-35 43 -5 0 -6 5 -3 10 3 6 1 10 -4 10 -6 0 -11 7 -11 16 0 18 -38 85 -54 96
-6 4 -7 8 -3 8 4 0 2 6 -5 14 -11 12 -14 11 -19 -3 -4 -9 -8 1 -10 27 -5 47 2
54 19 20z m-755 -8 c-3 -12 -8 -19 -11 -16 -5 6 5 36 12 36 2 0 2 -9 -1 -20z
m368 -53 c-10 -9 -11 -8 -5 6 3 10 9 15 12 12 3 -3 0 -11 -7 -18z m-1569 -99
c-12 -4 -13 -7 -3 -7 8 -1 12 -4 8 -7 -14 -14 -27 8 -16 28 9 17 13 18 20 7 5
-9 3 -16 -9 -21z m-29 -35 c-4 -9 -17 -36 -30 -60 -12 -24 -20 -43 -18 -43 3
0 -4 -9 -15 -20 -11 -11 -20 -27 -20 -35 0 -8 -4 -15 -9 -15 -11 0 -26 -39
-23 -60 2 -12 1 -12 -6 -2 -7 11 -10 10 -16 -3 -3 -9 -3 -22 1 -27 3 -7 1 -8
-5 -4 -11 6 -16 -6 -13 -26 0 -5 -4 -8 -10 -8 -5 0 -8 -4 -5 -8 3 -5 -1 -9 -9
-9 -12 0 -12 6 3 31 10 17 53 93 96 169 73 128 94 161 79 120z m364 -70 c-20
-2 -52 -2 -70 0 -17 2 0 4 38 4 39 0 53 -2 32 -4z m243 1 c-34 -7 -108 -8
-103 -1 2 4 30 6 61 6 31 -1 50 -3 42 -5z m188 -1 c-26 -2 -71 -2 -100 0 -29
2 -8 3 47 3 55 0 79 -1 53 -3z m407 1 c10 -4 12 -9 6 -13 -8 -6 28 -275 55
-404 l6 -28 -54 3 c-52 3 -53 3 -58 38 -5 35 -5 35 -61 38 l-56 3 -16 -41
c-15 -39 -16 -40 -66 -40 -28 0 -51 4 -51 8 0 5 38 100 84 213 l84 204 63 6
64 5 -65 5 -65 5 57 2 c31 1 64 -1 73 -4z m338 -1 c-34 -2 -93 -2 -130 0 -37
2 -9 3 62 3 72 0 102 -1 68 -3z m224 0 c-20 -2 -52 -2 -70 0 -17 2 0 4 38 4
39 0 53 -2 32 -4z m-1372 -25 c3 -7 13 -53 23 -101 l18 -89 27 64 c14 34 33
80 41 101 15 37 16 37 70 37 31 0 56 -2 56 -4 0 -2 -42 -92 -94 -199 -103
-214 -114 -227 -196 -227 -35 0 -40 3 -40 23 0 41 12 67 31 67 38 0 39 31 4
151 -19 64 -39 128 -45 143 -5 15 -8 32 -4 37 8 14 104 11 109 -3z m450 2 c48
-11 85 -50 85 -91 0 -36 -23 -84 -47 -98 -16 -8 -15 -11 7 -29 32 -26 34 -89
4 -128 -44 -60 -66 -68 -186 -73 l-110 -3 6 38 c3 22 15 113 26 204 12 91 23
171 25 178 5 15 129 16 190 2z m748 3 c3 -5 2 -26 -2 -48 l-7 -40 -66 1 c-77
2 -67 23 -94 -193 l-17 -143 -55 0 c-54 0 -54 0 -49 28 3 15 15 111 28 214
l23 187 117 0 c65 1 120 -2 122 -6z m235 -190 c18 -109 32 -206 32 -215 0 -15
-9 -18 -49 -18 -49 0 -49 0 -56 38 l-6 37 -57 -1 c-56 -2 -57 -2 -71 -38 -13
-35 -16 -36 -64 -36 -62 0 -64 -12 39 238 l79 192 60 0 61 0 32 -197z m6 117
c4 -42 3 -46 -3 -20 -16 64 -21 106 -12 90 5 -8 11 -40 15 -70z m-509 -25 c-4
-47 -10 -84 -12 -81 -3 2 -2 43 2 91 4 47 10 84 12 81 3 -2 2 -43 -2 -91z
m292 73 c-3 -8 -6 -5 -6 6 -1 11 2 17 5 13 3 -3 4 -12 1 -19z m-390 -10 c-3
-8 -6 -5 -6 6 -1 11 2 17 5 13 3 -3 4 -12 1 -19z m-278 -67 l-2 -46 -6 50 c-4
28 -10 57 -14 65 -5 8 -1 6 7 -4 10 -13 15 -37 15 -65z m-979 65 c0 -3 -4 -8
-10 -11 -5 -3 -10 -1 -10 4 0 6 5 11 10 11 6 0 10 -2 10 -4z m658 -32 c0 -17
-3 -22 -8 -13 -5 6 -6 18 -3 26 8 19 11 16 11 -13z m609 -26 c-3 -8 -6 -5 -6
6 -1 11 2 17 5 13 3 -3 4 -12 1 -19z m-939 -23 c-3 -3 -9 2 -12 12 -6 14 -5
15 5 6 7 -7 10 -15 7 -18z m153 -6 c-5 -13 -10 -19 -10 -12 -1 15 10 45 15 40
3 -2 0 -15 -5 -28z m1016 -11 c-3 -7 -5 -2 -5 12 0 14 2 19 5 13 2 -7 2 -19 0
-25z m86 25 c-13 -2 -35 -2 -50 0 -16 2 -5 4 22 4 28 0 40 -2 28 -4z m-936
-55 c-2 -13 -4 -5 -4 17 -1 22 1 32 4 23 2 -10 2 -28 0 -40z m630 5 c-3 -10
-5 -4 -5 12 0 17 2 24 5 18 2 -7 2 -21 0 -30z m600 -30 c-3 -10 -5 -4 -5 12 0
17 2 24 5 18 2 -7 2 -21 0 -30z m-390 -10 c-3 -10 -5 -4 -5 12 0 17 2 24 5 18
2 -7 2 -21 0 -30z m-1130 -25 c-3 -8 -6 -5 -6 6 -1 11 2 17 5 13 3 -3 4 -12 1
-19z m930 -10 c-3 -7 -5 -2 -5 12 0 14 2 19 5 13 2 -7 2 -19 0 -25z m50 -5
c-3 -10 -5 -4 -5 12 0 17 2 24 5 18 2 -7 2 -21 0 -30z m256 12 c-3 -9 -8 -14
-10 -11 -3 3 -2 9 2 15 9 16 15 13 8 -4z m294 -17 c-3 -7 -5 -2 -5 12 0 14 2
19 5 13 2 -7 2 -19 0 -25z m-1994 -71 c6 3 7 1 3 -5 -4 -7 -3 -12 1 -12 5 0 9
-10 10 -22 2 -16 -8 -7 -33 32 -18 30 -34 61 -34 70 1 8 10 -4 22 -27 11 -24
25 -40 31 -36z m1584 51 c-3 -8 -6 -5 -6 6 -1 11 2 17 5 13 3 -3 4 -12 1 -19z
m-931 -25 c-8 -15 -15 -25 -16 -21 0 12 23 58 27 54 3 -2 -2 -17 -11 -33z
m762 -43 c0 -22 -1 -22 -8 5 -4 17 -8 41 -8 55 0 22 1 22 8 -5 4 -16 8 -41 8
-55z m-681 8 c-2 -13 -4 -3 -4 22 0 25 2 35 4 23 2 -13 2 -33 0 -45z m-255 10
c-6 -6 -7 0 -4 19 5 21 7 23 10 9 2 -10 0 -22 -6 -28z m1525 10 c-3 -7 -5 -2
-5 12 0 14 2 19 5 13 2 -7 2 -19 0 -25z m-570 -15 c-3 -10 -5 -4 -5 12 0 17 2
24 5 18 2 -7 2 -21 0 -30z m140 -40 c-3 -10 -5 -4 -5 12 0 17 2 24 5 18 2 -7
2 -21 0 -30z m796 10 c-3 -7 -6 -13 -8 -13 -2 0 -5 6 -8 13 -3 8 1 14 8 14 7
0 11 -6 8 -14z m-356 -15 c-3 -8 -6 -5 -6 6 -1 11 2 17 5 13 3 -3 4 -12 1 -19z
m-1590 -50 c-2 -13 -4 -5 -4 17 -1 22 1 32 4 23 2 -10 2 -28 0 -40z m300 20
c-3 -7 -5 -2 -5 12 0 14 2 19 5 13 2 -7 2 -19 0 -25z m700 -5 c-3 -10 -5 -4
-5 12 0 17 2 24 5 18 2 -7 2 -21 0 -30z m453 20 c0 -14 -2 -15 -9 -4 -6 9 -22
12 -50 9 -22 -2 -41 0 -41 4 0 5 23 8 50 8 41 0 50 -3 50 -17z m-309 -30 c-12
-20 -14 -14 -5 12 4 9 9 14 11 11 3 -2 0 -13 -6 -23z m-1516 -13 c21 -41 19
-51 -5 -15 -11 17 -20 33 -20 38 0 15 10 6 25 -23z m535 15 c0 -2 -10 -9 -22
-15 -22 -11 -22 -10 -4 4 21 17 26 19 26 11z m308 -32 c-26 -2 -71 -2 -100 0
-29 2 -8 3 47 3 55 0 79 -1 53 -3z m235 0 c-13 -2 -33 -2 -45 0 -13 2 -3 4 22
4 25 0 35 -2 23 -4z m255 0 c-16 -2 -40 -2 -55 0 -16 2 -3 4 27 4 30 0 43 -2
28 -4z m125 0 c-13 -2 -35 -2 -50 0 -16 2 -5 4 22 4 28 0 40 -2 28 -4z m200 0
c-7 -2 -19 -2 -25 0 -7 3 -2 5 12 5 14 0 19 -2 13 -5z m234 1 c-3 -3 -12 -4
-19 -1 -8 3 -5 6 6 6 11 1 17 -2 13 -5z m318 -104 c-32 -55 -59 -99 -61 -97
-3 2 7 25 22 50 14 26 22 52 18 58 -4 8 -3 9 4 5 13 -8 31 23 25 44 -3 11 -2
11 4 3 6 -8 13 -3 22 18 7 17 15 28 18 25 3 -2 -21 -50 -52 -106z m-2167 40
c13 -16 19 -30 14 -30 -4 0 -16 14 -25 30 -10 17 -16 30 -14 30 2 0 13 -13 25
-30z m62 -69 c22 -19 29 -31 21 -35 -7 -4 -10 -2 -9 5 2 6 -3 14 -10 16 -11 4
-12 1 -3 -16 7 -11 17 -21 23 -21 6 0 9 -3 5 -6 -10 -11 23 -65 35 -58 6 4 8
3 5 -4 -8 -12 2 -44 12 -38 3 2 7 -8 8 -22 1 -20 -5 -14 -29 29 -17 30 -38 65
-48 79 -19 28 -50 86 -50 95 0 9 7 5 40 -24z m1814 -79 c2 -4 -5 -9 -17 -9
-17 -2 -19 0 -7 7 18 12 18 12 24 2z m-249 -12 c3 -5 1 -10 -4 -10 -6 0 -11 5
-11 10 0 6 2 10 4 10 3 0 8 -4 11 -10z m452 -29 c-12 -22 -23 -38 -25 -37 -5
6 31 76 39 76 4 0 -2 -18 -14 -39z m-51 -56 c6 -13 -77 -178 -94 -189 -5 -3
-6 9 -4 26 3 16 8 25 11 19 4 -5 18 14 31 44 14 30 29 55 33 55 5 0 5 5 2 10
-3 6 -1 10 4 10 13 0 10 22 -4 32 -6 5 -5 8 3 8 7 0 15 -7 18 -15z m-1859 -47
c-3 -7 -5 -2 -5 12 0 14 2 19 5 13 2 -7 2 -19 0 -25z m1108 22 c3 -5 1 -10 -4
-10 -6 0 -11 5 -11 10 0 6 2 10 4 10 3 0 8 -4 11 -10z m-1079 -49 c-2 -3 7
-24 20 -46 41 -70 46 -81 22 -53 -40 48 -69 105 -53 105 8 0 13 -3 11 -6z
m829 -61 c-3 -5 -12 -10 -18 -10 -7 0 -6 4 3 10 19 12 23 12 15 0z m861 -136
c-19 -33 -41 -68 -50 -79 -14 -19 -15 -18 -4 13 7 17 16 32 20 32 4 0 19 23
34 50 15 28 29 48 31 46 2 -2 -12 -30 -31 -62z m-1601 24 l16 -33 -20 25 c-20
24 -26 40 -16 40 2 0 12 -15 20 -32z m1360 14 c-3 -3 -11 0 -18 7 -9 10 -8 11
6 5 10 -3 15 -9 12 -12z m-635 -26 c0 -2 -7 -7 -16 -10 -8 -3 -12 -2 -9 4 6
10 25 14 25 6z m-682 -45 c3 -8 -1 -12 -9 -9 -7 2 -15 10 -17 17 -3 8 1 12 9
9 7 -2 15 -10 17 -17z m669 6 c0 -8 -6 -14 -14 -14 -9 0 -10 4 -2 14 6 7 12
13 14 13 1 0 2 -6 2 -13z m-54 -62 c-3 -9 -8 -14 -10 -11 -3 3 -2 9 2 15 9 16
15 13 8 -4z m-570 -17 c7 -7 13 -22 14 -33 1 -17 -1 -17 -18 5 -27 35 -24 57
4 28z m305 -23 c-3 -3 -9 2 -12 12 -6 14 -5 15 5 6 7 -7 10 -15 7 -18z m1124
-7 c-7 -7 -12 -8 -12 -2 0 14 12 26 19 19 2 -3 -1 -11 -7 -17z m-43 -82 c-7
-14 -16 -26 -21 -26 -5 0 -1 14 7 31 20 37 31 33 14 -5z m-1288 -36 c15 0 30
-4 33 -9 7 -11 25 -9 45 3 10 6 12 5 7 -2 -10 -17 116 -16 133 1 11 9 12 9 7
0 -5 -10 13 -12 79 -11 47 1 83 3 80 6 -3 3 5 11 18 17 24 13 52 1 41 -17 -5
-7 0 -7 12 0 10 6 25 7 34 3 25 -13 170 -11 170 2 0 8 3 8 12 -1 7 -7 19 -12
27 -11 11 0 10 3 -4 9 -18 8 -17 9 8 9 16 1 26 -2 24 -6 -3 -5 9 -7 26 -6 18
1 32 2 32 3 0 1 11 3 25 6 19 3 21 2 10 -6 -11 -7 -7 -10 18 -10 17 0 32 5 32
10 0 6 5 10 11 10 5 0 7 -4 4 -10 -9 -15 81 -13 106 3 17 10 23 10 26 0 3 -7
13 -13 24 -13 10 0 19 6 19 13 0 9 2 9 8 0 5 -8 35 -11 88 -10 48 1 81 -2 81
-8 0 -8 -879 -12 -1224 -6 -28 1 -36 7 -53 41 -11 21 -20 43 -19 47 0 4 8 -7
16 -24 13 -25 23 -33 44 -33z m1257 -15 c-3 -3 -9 2 -12 12 -6 14 -5 15 5 6 7
-7 10 -15 7 -18z"/>
<path d="M3464 6574 c-5 -18 -30 -82 -41 -111 -4 -9 6 -13 31 -13 l37 0 -7 68
c-7 75 -11 84 -20 56z m3 -66 c-3 -8 -6 -5 -6 6 -1 11 2 17 5 13 3 -3 4 -12 1
-19z m-2 -28 c3 -5 1 -10 -4 -10 -6 0 -11 5 -11 10 0 6 2 10 4 10 3 0 8 -4 11
-10z"/>
<path d="M3086 6589 c-4 -23 -5 -43 -4 -44 2 -2 18 0 36 2 62 10 69 83 8 83
-31 0 -34 -3 -40 -41z m25 -5 c-5 -16 -10 -21 -10 -12 -1 18 10 51 15 45 2 -1
-1 -16 -5 -33z"/>
<path d="M3075 6457 c-2 -7 -6 -27 -9 -44 -5 -32 -4 -33 29 -33 26 0 39 6 51
26 15 22 15 27 3 39 -19 19 -69 27 -74 12z m61 -30 c1 -12 1 -13 -3 -2 -7 22
-43 19 -43 -4 0 -11 6 -22 13 -24 7 -3 5 -6 -5 -6 -14 -1 -18 7 -18 30 0 27 3
30 27 27 18 -2 28 -9 29 -21z"/>
<path d="M4046 6532 c-10 -31 -21 -63 -23 -69 -4 -9 6 -13 30 -13 l35 0 -5 43
c-3 23 -8 54 -12 69 -5 25 -8 22 -25 -30z"/>
<path d="M3195 5440 c-3 -5 -1 -10 4 -10 6 0 11 5 11 10 0 6 -2 10 -4 10 -3 0
-8 -4 -11 -10z"/>
<path d="M677 6172 c-87 -147 -223 -377 -302 -512 l-144 -245 -115 -3 c-66 -1
-116 -7 -116 -12 0 -6 15 -11 33 -11 27 -2 28 -2 7 -6 -30 -6 -40 -19 -40 -55
l0 -27 117 -3 117 -3 104 -180 c58 -99 144 -247 191 -330 234 -406 278 -479
298 -501 l22 -24 603 0 603 1 44 77 c25 42 84 142 131 222 48 80 121 204 162
275 105 183 176 305 242 415 31 52 56 99 56 103 0 8 -292 511 -485 837 -34 58
-81 138 -104 178 l-42 72 -612 0 -612 -1 -158 -267z m1379 241 c-4 -4 -91 -6
-193 -5 -152 3 -184 1 -178 -10 6 -10 5 -11 -6 0 -15 14 -324 18 -315 4 3 -5
-1 -9 -9 -9 -8 0 -12 3 -10 6 2 4 -37 8 -87 9 -62 2 -94 -1 -106 -10 -9 -7
-13 -8 -9 -2 10 17 -285 13 -306 -4 -23 -19 -39 -70 -24 -76 7 -3 6 -5 -3 -5
-23 -2 -91 -110 -86 -137 3 -16 1 -21 -9 -17 -16 6 -57 -55 -48 -71 4 -8 2 -7
-6 0 -9 8 5 39 58 126 38 63 80 136 92 162 l23 46 615 0 c338 0 611 -3 607 -7z
m50 -86 c14 -26 14 -27 -3 -16 -11 6 -24 28 -30 48 -11 33 -10 34 4 16 8 -11
21 -33 29 -48z m-1033 2 c-8 -8 -13 -7 -18 2 -5 8 -4 10 3 5 7 -4 12 -2 12 5
0 7 3 9 7 6 4 -4 2 -12 -4 -18z m70 -74 c-3 -9 -8 -14 -10 -11 -3 3 -2 9 2 15
9 16 15 13 8 -4z m1041 -74 c-6 -6 -24 19 -24 34 1 6 7 1 15 -9 8 -11 12 -22
9 -25z m46 -63 c0 -15 -18 -8 -24 10 -3 9 -9 24 -12 32 -3 8 4 4 15 -10 11
-14 21 -28 21 -32z m-1293 26 c-3 -3 -12 -4 -19 -1 -8 3 -5 6 6 6 11 1 17 -2
13 -5z m1363 -149 c17 -33 25 -51 18 -41 -7 11 -22 29 -33 41 -17 18 -36 50
-53 90 -16 35 42 -41 68 -90z m-1660 63 c-6 -13 -13 -31 -16 -40 -4 -10 -10
-18 -15 -18 -10 0 -40 -55 -37 -67 1 -4 -5 -21 -15 -38 -9 -16 -16 -25 -17
-20 0 6 -14 -12 -30 -38 -17 -26 -28 -52 -25 -56 2 -5 -2 -14 -9 -20 -36 -30
-16 16 71 162 87 147 116 188 93 135z m1737 -193 c9 -16 13 -28 10 -25 -12 11
-57 81 -57 88 1 10 29 -28 47 -63z m-1266 -12 c13 -16 12 -17 -3 -4 -17 13
-22 21 -14 21 2 0 10 -8 17 -17z m849 -27 c0 -2 -8 -10 -17 -17 -16 -13 -17
-12 -4 4 13 16 21 21 21 13z m482 -71 c10 -18 9 -19 -5 -7 -9 8 -21 11 -27 7
-11 -7 -14 27 -3 38 7 7 14 -1 35 -38z m-1557 26 c3 -5 2 -12 -3 -15 -5 -3 -9
1 -9 9 0 17 3 19 12 6z m-449 -63 c-9 -14 -13 -28 -9 -31 3 -4 1 -7 -5 -7 -7
0 -12 3 -12 6 0 10 34 64 38 60 2 -3 -4 -15 -12 -28z m2105 -133 c39 -66 77
-133 85 -150 14 -28 14 -29 -1 -10 -9 11 -20 19 -25 18 -4 -1 -6 7 -3 17 3 12
0 20 -6 20 -7 0 -9 -6 -6 -12 4 -7 -1 -4 -10 7 -9 11 -14 28 -11 37 2 10 0 20
-5 23 -5 3 -16 21 -25 40 -9 19 -20 33 -24 30 -5 -3 -11 -1 -15 5 -3 5 -2 10
3 10 6 0 -3 26 -19 58 -40 76 -23 52 62 -93z m-2150 46 c-8 -5 -10 -14 -6 -22
5 -8 5 -11 0 -7 -10 9 -34 -21 -35 -43 0 -9 -7 -22 -15 -29 -8 -7 -15 -19 -15
-28 0 -8 -8 -22 -19 -31 -10 -9 -26 -31 -35 -49 -10 -19 -19 -32 -22 -29 -2 2
11 31 30 63 19 32 45 77 57 99 32 59 60 97 67 90 4 -3 0 -10 -7 -14z m446
-127 c-3 -3 -12 -4 -19 -1 -8 3 -5 6 6 6 11 1 17 -2 13 -5z m46 -1 c-7 -2 -19
-2 -25 0 -7 3 -2 5 12 5 14 0 19 -2 13 -5z m670 0 c-7 -2 -19 -2 -25 0 -7 3
-2 5 12 5 14 0 19 -2 13 -5z m315 0 c-10 -2 -28 -2 -40 0 -13 2 -5 4 17 4 22
1 32 -1 23 -4z m-1175 -10 c-13 -2 -33 -2 -45 0 -13 2 -3 4 22 4 25 0 35 -2
23 -4z m605 0 c-10 -2 -28 -2 -40 0 -13 2 -5 4 17 4 22 1 32 -1 23 -4z m865 0
c-7 -2 -21 -2 -30 0 -10 3 -4 5 12 5 17 0 24 -2 18 -5z m275 0 c-32 -2 -86 -2
-120 0 -35 2 -9 3 57 3 66 0 94 -1 63 -3z m-1504 -43 c30 -29 31 -34 31 -113
-1 -71 -4 -89 -27 -129 -58 -97 -187 -107 -233 -18 -18 34 -19 109 -4 165 33
122 156 172 233 95z m960 30 c14 -5 35 -24 47 -42 17 -28 20 -45 16 -108 -4
-89 -32 -151 -80 -180 -60 -37 -151 -19 -175 35 -17 37 -15 149 3 193 37 87
116 130 189 102z m-1350 -72 c-6 -40 -11 -74 -9 -76 1 -1 22 31 46 73 l44 75
52 0 53 0 -59 -81 -59 -80 15 -37 c8 -20 27 -62 42 -92 l28 -55 -56 5 -55 5
-25 64 c-26 66 -39 65 -40 -6 -1 -54 -9 -63 -55 -63 l-41 0 21 168 c12 92 22
168 23 170 1 1 21 2 45 2 l43 0 -13 -72z m580 55 c3 -10 10 -48 17 -86 l11
-67 41 85 40 85 44 0 c42 0 43 0 43 -35 0 -37 -17 -219 -26 -272 -5 -31 -7
-33 -45 -33 l-40 0 7 73 c4 39 11 82 15 95 20 54 -9 8 -36 -58 -28 -67 -32
-71 -60 -68 -29 3 -31 6 -47 83 -9 44 -17 68 -17 53 -1 -15 -6 -61 -12 -103
l-11 -75 -39 0 c-22 0 -39 4 -39 10 0 5 11 78 25 162 14 84 25 156 25 160 0 4
22 8 49 8 39 0 51 -4 55 -17z m442 8 c-3 -5 13 -15 36 -23 75 -23 99 -118 51
-198 -17 -29 -79 -70 -106 -70 -9 0 -18 -13 -22 -31 -5 -21 -11 -29 -22 -25
-8 3 -26 6 -39 6 -20 0 -25 4 -22 22 2 16 -4 24 -29 32 -56 19 -68 39 -68 115
0 58 4 72 28 104 18 23 42 41 67 48 22 7 40 16 40 21 0 4 21 8 46 8 25 0 43
-4 40 -9z m54 -1 c18 -12 2 -12 -25 0 -13 6 -15 9 -5 9 8 0 22 -4 30 -9z m367
-27 c-3 -10 -5 -4 -5 12 0 17 2 24 5 18 2 -7 2 -21 0 -30z m202 22 c34 -17 41
-33 41 -86 0 -75 -37 -116 -120 -134 -42 -9 -50 -19 -50 -67 l0 -38 -45 0
c-25 0 -45 4 -45 8 0 12 29 253 36 295 l6 37 74 0 c46 0 86 -6 103 -15z m307
-1 c-3 -9 -6 -27 -6 -40 0 -21 -4 -24 -39 -24 -23 0 -41 -5 -44 -14 -3 -7 -11
-65 -18 -130 l-12 -116 -44 0 c-23 0 -43 1 -43 3 0 1 7 56 15 122 8 65 15 123
15 128 0 5 -16 7 -35 5 -34 -4 -35 -3 -35 32 0 20 3 40 7 43 3 4 60 7 126 7
105 0 118 -2 113 -16z m-2049 -31 c-3 -10 -5 -4 -5 12 0 17 2 24 5 18 2 -7 2
-21 0 -30z m303 33 c0 -2 -8 -10 -17 -17 -16 -13 -17 -12 -4 4 13 16 21 21 21
13z m1765 -36 c-9 -41 -17 -33 -9 9 4 17 9 30 11 27 3 -2 2 -19 -2 -36z
m-1125 17 c0 -2 -10 -12 -22 -23 l-23 -19 19 23 c18 21 26 27 26 19z m-393
-29 c-3 -8 -6 -5 -6 6 -1 11 2 17 5 13 3 -3 4 -12 1 -19z m160 -20 c-3 -7 -5
-2 -5 12 0 14 2 19 5 13 2 -7 2 -19 0 -25z m24 9 c-10 -9 -11 -8 -5 6 3 10 9
15 12 12 3 -3 0 -11 -7 -18z m-478 -2 c-3 -9 -8 -14 -10 -11 -3 3 -2 9 2 15 9
16 15 13 8 -4z m634 -32 c-3 -10 -5 -2 -5 17 0 19 2 27 5 18 2 -10 2 -26 0
-35z m366 32 c-3 -9 -8 -14 -10 -11 -3 3 -2 9 2 15 9 16 15 13 8 -4z m274 -17
c-3 -7 -5 -2 -5 12 0 14 2 19 5 13 2 -7 2 -19 0 -25z m-1767 -5 c0 -15 -2 -16
-10 -3 -8 13 -14 8 -12 -11 1 -3 -6 -6 -14 -6 -19 0 -18 14 4 26 25 15 32 13
32 -6z m227 -20 c-3 -10 -5 -4 -5 12 0 17 2 24 5 18 2 -7 2 -21 0 -30z m550 5
c-3 -7 -5 -2 -5 12 0 14 2 19 5 13 2 -7 2 -19 0 -25z m-871 15 c-10 -11 -36
-12 -36 -2 0 5 10 9 22 9 12 0 18 -3 14 -7z m2545 -32 c-5 -9 -7 -21 -4 -27 2
-6 -4 -17 -13 -25 -16 -13 -16 -12 -4 11 7 14 13 26 12 28 -1 1 -2 14 -2 30 0
20 3 23 9 13 5 -8 6 -22 2 -30z m-1977 23 c-7 -3 -11 -21 -9 -42 1 -20 0 -24
-2 -9 l-4 28 -19 -23 c-11 -13 -19 -19 -20 -15 0 14 43 67 54 66 7 0 7 -2 0
-5z m1613 -51 c-3 -10 -5 -4 -5 12 0 17 2 24 5 18 2 -7 2 -21 0 -30z m-50 5
c-3 -8 -6 -5 -6 6 -1 11 2 17 5 13 3 -3 4 -12 1 -19z m-2154 -5 c-13 -2 -33
-2 -45 0 -13 2 -3 4 22 4 25 0 35 -2 23 -4z m75 0 c-10 -2 -26 -2 -35 0 -10 3
-2 5 17 5 19 0 27 -2 18 -5z m2249 -30 c-3 -10 -5 -4 -5 12 0 17 2 24 5 18 2
-7 2 -21 0 -30z m-2156 3 c7 -15 18 -23 29 -21 9 2 17 -2 18 -8 5 -61 66 -182
84 -170 7 3 8 1 4 -6 -4 -6 -2 -20 5 -29 8 -10 5 -9 -8 3 -12 11 -33 43 -48
70 -27 49 -60 103 -97 158 -10 15 -14 27 -8 27 6 0 15 -11 21 -24z m166 -23
c-3 -10 -5 -2 -5 17 0 19 2 27 5 18 2 -10 2 -26 0 -35z m243 -3 c0 -19 -18
-19 -23 -1 -3 14 -1 18 9 14 8 -3 14 -9 14 -13z m1617 -27 c-3 -10 -5 -4 -5
12 0 17 2 24 5 18 2 -7 2 -21 0 -30z m-960 -5 c-3 -7 -5 -2 -5 12 0 14 2 19 5
13 2 -7 2 -19 0 -25z m640 0 c-3 -8 -6 -5 -6 6 -1 11 2 17 5 13 3 -3 4 -12 1
-19z m213 7 c-7 -8 -20 -15 -29 -15 -11 0 -8 5 9 14 33 19 35 19 20 1z m227
-32 c-3 -10 -5 -2 -5 17 0 19 2 27 5 18 2 -10 2 -26 0 -35z m197 17 c-10 -16
-20 -28 -22 -26 -4 5 28 56 35 56 2 0 -4 -13 -13 -30z m-2184 -16 c0 -14 -4
-23 -9 -20 -5 3 -7 15 -4 26 7 28 13 25 13 -6z m260 11 c0 -8 -2 -15 -4 -15
-2 0 -6 7 -10 15 -3 8 -1 15 4 15 6 0 10 -7 10 -15z m1433 -2 c-12 -2 -24 -12
-26 -21 -3 -12 -5 -10 -6 6 -1 18 4 22 27 21 22 -1 23 -2 5 -6z m-1036 -40
c-3 -10 -5 -4 -5 12 0 17 2 24 5 18 2 -7 2 -21 0 -30z m120 0 c-3 -10 -5 -4
-5 12 0 17 2 24 5 18 2 -7 2 -21 0 -30z m762 5 c0 -27 -2 -29 -8 -13 -8 19 -8
19 -15 -3 -4 -13 -10 -21 -13 -18 -4 4 27 66 34 66 2 0 3 -15 2 -32z m-1002 0
c-3 -8 -6 -5 -6 6 -1 11 2 17 5 13 3 -3 4 -12 1 -19z m-415 -18 c-2 -16 -6
-30 -8 -30 -2 0 -4 14 -4 30 0 17 4 30 8 30 5 0 7 -13 4 -30z m775 -17 c-3
-10 -5 -2 -5 17 0 19 2 27 5 18 2 -10 2 -26 0 -35z m960 15 c-3 -7 -5 -2 -5
12 0 14 2 19 5 13 2 -7 2 -19 0 -25z m-1827 -49 c29 -5 31 -7 8 -8 -44 -2 -58
8 -57 43 l1 31 7 -30 c5 -25 12 -31 41 -36z m980 26 c0 -14 -2 -25 -4 -25 -2
0 -6 11 -8 25 -3 14 -1 25 3 25 5 0 9 -11 9 -25z m1094 -49 c-21 -36 -40 -64
-42 -62 -2 3 14 34 35 69 21 36 40 64 42 62 2 -2 -14 -33 -35 -69z m-1377 58
c-3 -3 -12 -4 -19 -1 -8 3 -5 6 6 6 11 1 17 -2 13 -5z m-520 -40 c-3 -3 -12
-4 -19 -1 -8 3 -5 6 6 6 11 1 17 -2 13 -5z m215 -8 c-19 -5 -45 -5 -64 0 -27
8 -23 9 32 9 55 0 59 -1 32 -9z m181 7 c-13 -2 -33 -2 -45 0 -13 2 -3 4 22 4
25 0 35 -2 23 -4z m245 0 c-10 -2 -28 -2 -40 0 -13 2 -5 4 17 4 22 1 32 -1 23
-4z m505 0 c-7 -2 -19 -2 -25 0 -7 3 -2 5 12 5 14 0 19 -2 13 -5z m84 1 c-3
-3 -12 -4 -19 -1 -8 3 -5 6 6 6 11 1 17 -2 13 -5z m171 -1 c-10 -2 -26 -2 -35
0 -10 3 -2 5 17 5 19 0 27 -2 18 -5z m335 0 c-7 -2 -21 -2 -30 0 -10 3 -4 5
12 5 17 0 24 -2 18 -5z m-865 -10 c-10 -2 -26 -2 -35 0 -10 3 -2 5 17 5 19 0
27 -2 18 -5z m-1062 -99 c12 -38 0 -35 -20 5 -11 21 -12 28 -2 28 7 0 17 -15
22 -33z m209 -14 c-3 -5 -1 -10 6 -10 7 0 10 -3 6 -6 -9 -9 -28 6 -22 17 4 5
8 9 11 9 3 0 2 -4 -1 -10z m1805 -20 c-6 -11 -13 -20 -16 -20 -2 0 0 9 6 20 6
11 13 20 16 20 2 0 0 -9 -6 -20z m-1970 -25 c0 -8 -1 -17 -2 -20 -2 -2 15 -23
37 -46 22 -23 34 -39 28 -35 -19 11 -15 -5 4 -20 10 -7 14 -16 10 -21 -10 -10
-36 24 -77 99 -24 45 -27 58 -15 58 8 0 15 -7 15 -15z m1936 -37 c-9 -12 -16
-19 -16 -15 0 11 24 47 28 42 2 -2 -3 -14 -12 -27z m-1606 -8 c0 -5 -2 -10 -4
-10 -3 0 -8 5 -11 10 -3 6 -1 10 4 10 6 0 11 -4 11 -10z m17 -52 c-3 -8 -6 -5
-6 6 -1 11 2 17 5 13 3 -3 4 -12 1 -19z m1516 -62 c-10 -13 -20 -22 -22 -20
-4 4 29 44 36 44 2 0 -4 -11 -14 -24z m-1763 -31 c0 -7 11 -22 25 -33 13 -10
26 -30 29 -43 7 -39 60 -126 74 -122 7 3 12 -3 12 -14 0 -15 -2 -16 -10 -3 -8
12 -10 12 -10 1 0 -8 -23 23 -50 68 -28 46 -48 87 -44 92 3 5 1 9 -5 9 -6 0
-17 13 -26 30 -17 34 -19 44 -5 35 6 -3 10 -12 10 -20z m1734 -22 c-3 -10 -14
-29 -25 -43 l-20 -25 13 30 c19 47 41 73 32 38z m-1241 -108 c-3 -9 -8 -14
-10 -11 -3 3 -2 9 2 15 9 16 15 13 8 -4z m1172 -12 c-26 -41 -48 -69 -43 -58
13 35 43 85 51 85 5 0 1 -12 -8 -27z m-63 -102 c-9 -16 -18 -28 -21 -26 -4 5
27 55 34 55 2 0 -4 -13 -13 -29z m-1458 -7 c3 -8 2 -12 -4 -9 -6 3 -10 10 -10
16 0 14 7 11 14 -7z m26 -34 c-12 -8 -10 -10 9 -10 19 0 21 -3 12 -14 -10 -11
-8 -16 8 -21 12 -4 18 -12 14 -21 -8 -22 -16 -17 -39 26 -21 38 -21 50 0 50 6
0 4 -5 -4 -10z m1373 -60 c-9 -16 -21 -30 -26 -30 -4 0 -6 -4 -3 -9 3 -5 -2
-17 -12 -28 -9 -10 -14 -14 -9 -9 4 6 7 18 7 27 0 13 47 77 58 79 2 0 -5 -13
-15 -30z m-1250 -107 c-5 -12 6 -14 65 -12 41 2 68 7 65 13 -4 5 -1 6 8 0 18
-11 370 -14 363 -3 -3 5 2 9 10 9 9 0 16 -4 16 -9 0 -5 8 -12 18 -14 9 -3
-116 -5 -279 -6 l-297 -1 -15 23 c-14 22 -14 23 18 19 25 -3 32 -8 28 -19z
m42 7 c-3 -5 -12 -10 -18 -10 -7 0 -6 4 3 10 19 12 23 12 15 0z m165 0 c12 -7
10 -9 -8 -7 -12 0 -22 5 -22 9 0 11 12 10 30 -2z m250 0 c0 -5 -2 -10 -4 -10
-3 0 -8 5 -11 10 -3 6 -1 10 4 10 6 0 11 -4 11 -10z m240 2 c0 -5 -7 -9 -15
-9 -8 0 -12 4 -9 9 3 4 9 8 15 8 5 0 9 -4 9 -8z m56 -5 c-15 -11 -10 -13 29
-14 32 -1 43 2 39 10 -5 8 -3 8 7 0 19 -18 29 -16 23 5 -5 16 -5 16 5 0 16
-24 131 -23 132 1 0 11 2 12 6 3 2 -6 9 -10 14 -6 5 3 9 1 9 -4 0 -5 30 -10
67 -11 37 -1 70 -4 72 -7 2 -2 -129 -4 -292 -4 -185 0 -297 4 -297 10 0 5 7 6
17 3 10 -4 14 -2 10 4 -3 5 0 10 8 10 8 0 12 -4 9 -8 -2 -4 24 -7 58 -5 35 1
62 7 61 12 -1 5 8 11 19 11 19 2 19 1 4 -10z"/>
<path d="M816 5397 c-34 -25 -48 -153 -20 -181 35 -35 84 32 84 114 0 70 -25
96 -64 67z m44 -17 c0 -5 -7 -6 -17 -3 -12 5 -14 3 -8 -7 5 -8 4 -11 -3 -6 -7
4 -15 -6 -21 -26 -5 -18 -10 -25 -10 -16 -2 29 21 68 41 68 10 0 18 -4 18 -10z
m-3 -102 c-3 -7 -5 -2 -5 12 0 14 2 19 5 13 2 -7 2 -19 0 -25z m-30 -54 c-3
-3 -12 -4 -19 -1 -8 3 -5 6 6 6 11 1 17 -2 13 -5z"/>
<path d="M1803 5384 c-24 -38 -31 -155 -10 -173 41 -34 81 40 75 139 -3 48 -6
55 -25 58 -15 2 -27 -6 -40 -24z m55 -49 l0 -30 -8 30 c-4 17 -8 39 -8 50 l-1
20 9 -20 c5 -11 8 -33 8 -50z m-61 -47 c-3 -8 -6 -5 -6 6 -1 11 2 17 5 13 3
-3 4 -12 1 -19z m50 -20 c-3 -7 -5 -2 -5 12 0 14 2 19 5 13 2 -7 2 -19 0 -25z"/>
<path d="M1446 5371 c-33 -37 -30 -121 4 -121 9 0 25 128 18 136 -3 2 -12 -4
-22 -15z m5 -53 c-4 -35 -6 -38 -9 -15 -3 26 3 57 10 57 2 0 1 -19 -1 -42z"/>
<path d="M1544 5320 c-5 -38 -7 -70 -4 -70 38 1 67 99 38 128 -20 20 -24 14
-34 -58z m29 8 c-8 -46 -13 -48 -13 -5 0 21 4 37 10 37 5 0 7 -14 3 -32z"/>
<path d="M2086 5394 c-3 -9 -6 -29 -6 -45 0 -36 31 -40 54 -7 20 28 20 33 0
52 -20 20 -40 20 -48 0z m44 -23 c0 -11 -4 -23 -10 -26 -6 -4 -7 1 -3 10 3 10
0 21 -8 26 -11 7 -11 9 4 9 10 0 17 -8 17 -19z"/>
<path d="M280 5265 c0 -5 5 -17 10 -25 5 -8 10 -10 10 -5 0 6 -5 17 -10 25 -5
8 -10 11 -10 5z"/>
<path d="M5246 6423 c-2 -10 -7 -32 -11 -49 -6 -30 -9 -32 -62 -38 -124 -15
-255 -112 -310 -233 -36 -79 -56 -186 -49 -273 12 -171 76 -251 222 -281 l61
-12 -5 -44 -5 -43 96 0 95 0 6 43 7 44 57 10 c179 33 297 164 338 373 19 96
14 212 -10 271 -34 81 -107 131 -210 144 l-48 7 6 49 7 49 -90 0 c-77 0 -90
-3 -95 -17z m163 -25 c-1 -18 -3 -25 -6 -15 -4 15 -15 19 -39 16 -4 0 -10 5
-14 12 -7 10 -14 10 -38 0 -30 -13 -52 -9 -52 10 0 5 34 9 75 9 l75 0 -1 -32z
m157 -109 c51 -24 76 -49 49 -49 -10 0 -15 3 -12 7 8 8 -26 33 -53 38 -11 2
-28 8 -37 14 -34 20 9 12 53 -10z m-509 -13 c-14 -11 -15 -15 -5 -19 7 -3 0
-6 -17 -6 -33 -1 -75 -39 -78 -69 0 -11 -8 -19 -16 -18 -22 1 -72 -102 -65
-136 4 -19 0 -29 -13 -36 -13 -8 -18 -26 -21 -81 -5 -78 5 -164 17 -157 4 3 8
-1 8 -8 0 -18 -23 -16 -27 3 -2 9 -3 66 -4 126 -1 112 11 162 60 257 23 45
104 129 139 144 38 17 45 17 22 0z m608 -106 c9 -28 15 -54 13 -59 -2 -5 -12
20 -23 54 -12 35 -18 62 -14 59 4 -2 15 -27 24 -54z m-480 20 c-3 -5 -12 -10
-18 -10 -7 0 -6 4 3 10 19 12 23 12 15 0z m285 -15 c20 -24 6 -28 -15 -5 -10
11 -13 20 -8 20 6 0 16 -7 23 -15z m-323 -1 c-3 -3 -12 -4 -19 -1 -8 3 -5 6 6
6 11 1 17 -2 13 -5z m53 -37 c-5 -17 -23 -123 -41 -234 -17 -112 -36 -203 -41
-203 -26 0 -71 35 -84 65 -33 79 -6 255 50 329 31 40 103 89 117 80 4 -2 3
-19 -1 -37z m243 22 c36 -27 50 -88 42 -169 -12 -117 -43 -199 -99 -259 -23
-26 -26 -32 -11 -27 11 4 16 3 11 -1 -15 -15 -66 -9 -66 8 0 16 28 202 55 364
8 50 15 93 15 98 0 14 27 7 53 -14z m-76 -21 c-3 -7 -5 -2 -5 12 0 14 2 19 5
13 2 -7 2 -19 0 -25z m-287 -18 c-6 -12 -14 -20 -17 -17 -2 3 1 14 8 26 17 26
24 19 9 -9z m426 -83 l2 -82 -7 80 c-3 44 -10 87 -15 95 -7 12 -7 13 5 2 9 -9
14 -39 15 -95z m-469 3 c-7 -17 -13 -26 -15 -21 -3 10 15 51 22 51 3 0 -1 -14
-7 -30z m640 -47 c-2 -16 -4 -3 -4 27 0 30 2 43 4 28 2 -16 2 -40 0 -55z
m-476 -5 c-9 -31 -9 -31 -10 -6 -1 30 11 67 16 51 2 -6 0 -26 -6 -45z m146 10
c-3 -7 -5 -2 -5 12 0 14 2 19 5 13 2 -7 2 -19 0 -25z m-330 -38 c-6 -22 -13
-38 -15 -36 -6 7 10 76 18 76 4 0 2 -18 -3 -40z m316 -31 c-6 -6 -7 3 -4 23 4
28 6 29 9 9 2 -13 0 -27 -5 -32z m341 14 c-17 -76 -35 -137 -40 -142 -4 -3 -4
3 -1 14 3 11 10 43 17 70 16 67 19 75 24 75 2 0 2 -8 0 -17z m-482 -33 c-6
-42 -19 -38 -14 5 2 19 7 33 11 30 4 -2 6 -18 3 -35z m321 17 c9 5 9 3 1 -8
-6 -8 -16 -27 -23 -44 -9 -23 -10 -24 -6 -5 2 14 5 39 6 55 1 17 3 23 6 12 3
-10 9 -14 16 -10z m-186 -39 c-3 -8 -6 -5 -6 6 -1 11 2 17 5 13 3 -3 4 -12 1
-19z m-330 -55 c-3 -10 -5 -4 -5 12 0 17 2 24 5 18 2 -7 2 -21 0 -30z m183 11
c-14 -37 -13 -67 3 -58 9 6 9 5 0 -8 -7 -8 -9 -19 -5 -23 4 -5 1 -5 -5 -1 -8
4 -13 1 -13 -8 0 -9 -4 -16 -10 -16 -6 0 -6 8 0 23 5 12 12 43 15 70 3 26 10
47 15 47 6 0 5 -11 0 -26z m135 -36 c-4 -35 -9 -65 -11 -67 -6 -6 -5 49 2 92
10 60 16 43 9 -25z m152 2 c-7 -17 -13 -26 -15 -21 -3 10 15 51 22 51 3 0 -1
-14 -7 -30z m152 -54 c-13 -29 -26 -34 -26 -11 0 8 4 12 8 9 4 -2 11 5 14 17
4 11 9 18 11 16 3 -2 -1 -16 -7 -31z m-186 -16 c-10 -17 -19 -26 -21 -20 -4
10 25 50 35 50 2 0 -4 -14 -14 -30z m-370 -43 c-3 -6 -1 -7 5 -3 7 4 20 2 29
-3 15 -9 11 -10 -18 -11 -32 0 -36 3 -36 25 0 20 2 23 13 14 8 -6 11 -16 7
-22z m-183 3 c0 -11 -4 -20 -9 -20 -5 0 -11 9 -14 20 -3 13 0 20 9 20 8 0 14
-9 14 -20z m675 -30 c-21 -22 -40 -38 -42 -36 -5 4 71 82 76 78 3 -1 -13 -20
-34 -42z m-648 -17 c-4 -3 0 -15 10 -25 20 -22 11 -24 -11 -2 -15 14 -14 34 1
34 4 0 3 -3 0 -7z m573 -43 c-14 -11 -31 -20 -37 -21 -17 -2 -25 -4 -45 -13
-10 -4 -23 -6 -30 -3 -7 3 -3 6 9 6 12 1 25 6 28 11 4 6 10 8 14 6 4 -3 21 4
37 14 39 25 56 25 24 0z m-500 -26 c0 -2 -9 0 -20 6 -11 6 -20 13 -20 16 0 2
9 0 20 -6 11 -6 20 -13 20 -16z m360 -14 c0 -5 -5 -10 -11 -10 -5 0 -7 5 -4
10 3 6 8 10 11 10 2 0 4 -4 4 -10z m-252 -7 c-10 -2 -28 -2 -40 0 -13 2 -5 4
17 4 22 1 32 -1 23 -4z m100 -100 c-10 -2 -26 -2 -35 0 -10 3 -2 5 17 5 19 0
27 -2 18 -5z"/>
<path d="M6087 6400 c-108 -27 -211 -117 -265 -231 -52 -108 -73 -219 -71
-368 2 -191 35 -268 141 -327 49 -27 61 -29 158 -29 95 0 111 3 168 29 117 54
216 193 257 359 41 169 39 326 -6 427 -26 58 -53 86 -114 118 -41 21 -66 26
-140 28 -49 2 -107 -1 -128 -6z m98 -21 c-49 -4 -97 -9 -105 -11 -8 -3 -27 -8
-42 -13 -16 -4 -28 -11 -28 -17 0 -5 -4 -7 -9 -4 -5 3 -29 -13 -55 -35 -47
-42 -90 -104 -106 -156 -23 -71 -60 -156 -54 -123 9 49 59 167 91 216 40 58
93 101 160 129 48 20 74 24 148 23 l90 -1 -90 -8z m175 -20 c51 -26 112 -100
96 -117 -3 -3 -6 0 -6 7 0 7 -4 10 -9 6 -5 -3 -13 0 -17 6 -4 8 -3 9 4 5 7 -4
12 -3 12 2 0 17 -13 22 -27 10 -11 -8 -12 -7 -7 6 8 21 -24 59 -43 51 -8 -2
-11 -1 -8 5 7 11 -26 30 -54 30 -12 0 -21 5 -21 11 0 12 30 4 80 -22z m-172
-106 c-10 -2 -28 -2 -40 0 -13 2 -5 4 17 4 22 1 32 -1 23 -4z m-91 -23 c-14
-11 -29 -20 -33 -20 -4 0 3 9 16 20 13 11 27 20 33 20 5 0 -2 -9 -16 -20z
m122 -4 c50 -26 64 -79 58 -213 -7 -168 -54 -315 -115 -364 -60 -47 -150 -29
-178 36 -19 46 -18 186 2 282 29 142 77 232 138 259 40 17 61 17 95 0z m63
-21 c2 3 5 -1 6 -7 0 -7 6 -33 12 -58 8 -29 9 -82 5 -150 -4 -58 -7 -115 -7
-127 0 -13 -3 -23 -7 -23 -4 0 -15 -27 -25 -60 -10 -34 -20 -59 -23 -57 -2 3
5 33 17 68 45 138 49 337 8 409 -11 19 -13 27 -5 18 8 -10 16 -16 19 -13z
m196 -30 c0 -16 -2 -15 -8 5 -11 34 -11 60 0 35 5 -11 8 -29 8 -40z m-441 -7
c-14 -18 -28 -43 -32 -56 -4 -13 -9 -22 -11 -19 -8 8 17 61 38 85 31 32 33 27
5 -10z m453 -115 c0 -48 -3 -84 -6 -81 -8 9 -10 177 -1 171 4 -2 7 -43 7 -90z
m-515 -60 c-10 -43 -21 -121 -25 -173 -6 -86 -14 -72 -12 23 1 21 -2 36 -7 33
-10 -7 -8 51 3 61 5 5 7 1 3 -10 -4 -10 -3 -16 3 -12 5 3 7 20 3 37 -4 22 -3
29 5 24 8 -4 12 1 13 13 2 33 4 39 12 47 4 4 7 16 7 27 0 11 3 18 6 14 3 -3
-2 -41 -11 -84z m-198 -75 c-2 -13 -4 -3 -4 22 0 25 2 35 4 23 2 -13 2 -33 0
-45z m690 -45 c-3 -10 -5 -2 -5 17 0 19 2 27 5 18 2 -10 2 -26 0 -35z m-697
-45 l-5 -63 -3 49 c-3 43 2 76 10 76 2 0 1 -28 -2 -62z m664 -72 c-19 -47 -30
-64 -32 -50 -2 12 8 43 22 69 15 26 26 55 27 64 0 12 2 12 6 2 3 -7 -7 -45
-23 -85z m-630 -161 c3 -11 -3 -2 -13 20 -11 22 -22 65 -25 95 -6 53 -5 52 13
-20 10 -41 21 -84 25 -95z m433 100 c0 -8 -2 -13 -5 -11 -2 3 -15 -8 -29 -25
-14 -16 -35 -34 -47 -40 -11 -6 -4 3 16 20 20 17 40 40 43 51 7 23 22 27 22 5z
m125 -82 c-38 -53 -104 -105 -164 -129 -33 -14 -63 -23 -66 -20 -2 3 4 8 14
12 57 18 83 30 122 56 23 16 42 35 42 43 0 8 5 15 11 15 6 0 20 11 31 25 26
34 34 32 10 -2z m-312 -3 c8 -5 11 -10 5 -10 -5 0 -17 5 -25 10 -8 5 -10 10
-5 10 6 0 17 -5 25 -10z m73 -7 c-7 -2 -21 -2 -30 0 -10 3 -4 5 12 5 17 0 24
-2 18 -5z m-143 -134 c13 -7 13 -8 0 -8 -8 0 -26 6 -40 15 l-25 15 25 -7 c14
-3 32 -10 40 -15z m133 -16 c-7 -2 -19 -2 -25 0 -7 3 -2 5 12 5 14 0 19 -2 13
-5z"/>
<path d="M6656 6369 c-3 -13 -26 -168 -51 -344 -25 -176 -54 -373 -64 -438
-13 -88 -15 -120 -6 -123 6 -3 54 -3 106 -2 l94 3 20 145 20 145 85 7 c110 8
163 22 228 61 91 54 149 155 159 277 8 90 -15 168 -63 214 -60 59 -104 68
-326 74 l-197 4 -5 -23z m124 -6 c-82 -8 -102 -14 -96 -29 3 -8 1 -14 -4 -14
-6 0 -11 -17 -11 -37 -1 -21 -5 -51 -10 -68 -6 -20 -7 -7 -3 40 8 117 5 113
87 112 40 0 56 -2 37 -4z m311 -11 c47 -15 99 -50 99 -66 0 -5 -10 0 -23 12
-13 12 -30 22 -38 22 -8 0 -23 7 -33 15 -24 18 -40 19 -30 3 5 -9 2 -8 -9 1
-12 9 -58 17 -130 21 l-112 8 117 -1 c74 0 132 -6 159 -15z m136 -248 c-2 -45
-10 -90 -16 -100 -9 -16 -10 -10 -8 27 1 28 6 45 12 41 6 -3 4 1 -2 10 -7 8
-10 18 -6 22 9 9 12 56 4 56 -4 0 -7 25 -7 56 l-1 57 15 -44 c10 -31 13 -68 9
-125z m-258 137 c10 -6 -1 -8 -30 -4 -24 3 -46 7 -48 9 -10 9 65 3 78 -5z m-4
-25 c52 -22 68 -55 63 -126 -7 -101 -60 -152 -164 -158 -64 -4 -65 -4 -60 19
3 13 13 76 21 139 9 63 18 121 20 128 6 16 77 15 120 -2z m-154 -116 c-10 -55
-10 -55 -6 20 5 93 7 103 12 65 2 -16 -1 -55 -6 -85z m-165 18 c-3 -35 -8 -75
-11 -89 -3 -14 -7 -45 -9 -70 -3 -24 -5 -46 -5 -48 -1 -2 -4 -2 -7 2 -3 3 2
64 12 136 18 135 31 179 20 69z m411 -35 c-3 -10 -5 -2 -5 17 0 19 2 27 5 18
2 -10 2 -26 0 -35z m-16 -57 c-14 -36 -22 -33 -9 5 6 16 12 28 14 26 3 -2 0
-16 -5 -31z m-244 -18 c-3 -7 -5 -2 -5 12 0 14 2 19 5 13 2 -7 2 -19 0 -25z
m-7 -48 c0 -16 -4 -30 -8 -30 -5 0 -7 14 -4 30 2 17 6 30 8 30 2 0 4 -13 4
-30z m240 26 c0 -3 -4 -8 -10 -11 -5 -3 -10 -1 -10 4 0 6 5 11 10 11 6 0 10
-2 10 -4z m170 -14 c0 -5 -7 -17 -15 -28 -14 -18 -14 -17 -4 9 12 27 19 34 19
19z m-215 -22 c-9 -14 -65 -42 -65 -33 0 6 34 27 68 42 2 0 0 -4 -3 -9z m164
-59 c-12 -16 -56 -46 -97 -67 -70 -35 -83 -38 -172 -40 l-95 -2 95 8 c96 8
143 20 155 40 3 5 11 8 16 5 5 -4 9 -1 9 4 0 6 3 10 8 9 12 -4 52 26 52 39 0
7 6 12 13 11 6 -2 11 3 10 10 -2 6 4 12 12 12 13 0 11 -6 -6 -29z m-266 12
c-7 -2 -21 -2 -30 0 -10 3 -4 5 12 5 17 0 24 -2 18 -5z m-282 -106 c-5 -34
-13 -84 -17 -112 -3 -27 -10 -58 -15 -70 -10 -23 -8 -5 18 160 9 60 18 104 21
97 2 -7 -1 -41 -7 -75z m149 -108 c-30 -185 -29 -180 -23 -94 8 111 10 127 18
148 14 33 16 10 5 -54z m-193 -156 c-3 -10 -5 -4 -5 12 0 17 2 24 5 18 2 -7 2
-21 0 -30z m126 -50 c-24 -2 -62 -2 -85 0 -24 2 -5 4 42 4 47 0 66 -2 43 -4z"/>
<path d="M7385 6343 c-6 -47 -81 -448 -130 -699 -13 -71 -27 -141 -30 -156
l-4 -28 99 0 c55 0 100 2 100 4 0 2 7 43 16 92 41 235 74 446 74 470 0 72 18
-9 50 -224 l35 -237 96 -3 96 -3 78 193 c43 106 84 212 92 235 19 54 36 67 29
21 -3 -18 -10 -82 -16 -143 -11 -116 -24 -239 -35 -342 l-8 -63 101 0 101 0 5
53 c7 62 20 203 41 427 23 253 35 371 40 413 l5 38 -132 -3 -132 -3 -38 -95
c-57 -140 -168 -447 -168 -464 0 -8 -4 -18 -10 -21 -5 -3 -10 0 -10 8 0 8 -18
139 -40 291 -22 152 -40 279 -40 281 0 3 -58 5 -129 5 l-129 0 -7 -47z m245
18 c0 -5 -7 -14 -16 -21 -12 -11 -15 -11 -12 1 2 11 -16 15 -82 20 l-85 5 98
2 c53 1 97 -2 97 -7z m570 -2 c0 -5 -4 -7 -10 -4 -6 4 -7 -19 -3 -60 5 -58 4
-65 -10 -59 -9 3 -14 11 -11 16 11 17 12 68 2 68 -5 0 -8 8 -6 18 3 15 -7 17
-75 20 -47 2 -76 -1 -73 -6 3 -6 -2 -16 -11 -23 -12 -10 -14 -10 -9 -1 9 15
-4 15 -24 -1 -16 -13 -70 -137 -70 -161 0 -8 -7 -27 -16 -42 l-16 -29 7 29 c3
17 21 68 39 115 19 48 37 96 40 109 7 21 12 22 127 22 77 0 119 -4 119 -11z
m-780 -28 c-5 -11 -15 -43 -21 -73 -7 -29 -14 -48 -16 -42 -3 9 12 84 26 132
1 1 6 2 11 2 7 0 7 -6 0 -19z m227 -73 c-3 -7 -5 -2 -5 12 0 14 2 19 5 13 2
-7 2 -19 0 -25z m15 -57 c2 -22 0 -37 -3 -35 -9 5 -17 74 -8 74 4 0 9 -18 11
-39z m509 -116 l-10 -90 4 110 c5 121 6 132 12 95 2 -14 -1 -65 -6 -115z
m-794 68 c-3 -10 -5 -4 -5 12 0 17 2 24 5 18 2 -7 2 -21 0 -30z m-12 -65 c-4
-24 -9 -54 -10 -68 -3 -27 -22 -132 -30 -165 -24 -101 -34 -155 -35 -182 0
-18 -5 -33 -11 -33 -7 0 -9 9 -6 23 3 12 11 51 17 87 7 36 14 72 17 80 4 8 5
18 5 23 -1 4 4 38 12 75 8 37 20 97 27 135 7 37 15 67 17 67 3 0 1 -19 -3 -42z
m302 20 c-3 -8 -6 -5 -6 6 -1 11 2 17 5 13 3 -3 4 -12 1 -19z m191 -43 c-6
-14 -13 -23 -15 -21 -5 5 15 46 22 46 3 0 -1 -11 -7 -25z m-18 -50 c0 -8 -4
-15 -10 -15 -5 0 -7 7 -4 15 4 8 8 15 10 15 2 0 4 -7 4 -15z m-353 -42 c-3
-10 -5 -2 -5 17 0 19 2 27 5 18 2 -10 2 -26 0 -35z m73 27 c0 -5 -5 -10 -11
-10 -5 0 -7 5 -4 10 3 6 8 10 11 10 2 0 4 -4 4 -10z m384 -15 c-4 -8 -11 -12
-16 -9 -6 4 -5 10 3 15 19 12 19 11 13 -6z m-376 -75 l0 -25 -8 25 c-4 14 -8
36 -8 50 l0 25 8 -25 c4 -14 8 -36 8 -50z m249 48 c-3 -8 -6 -5 -6 6 -1 11 2
17 5 13 3 -3 4 -12 1 -19z m-126 -81 c-6 -6 -8 -3 -6 9 2 11 5 33 6 49 2 26 3
25 6 -9 3 -21 0 -43 -6 -49z m-220 -3 c-6 -38 -13 -91 -17 -119 -3 -27 -8 -52
-11 -55 -7 -7 2 133 9 145 3 6 9 32 12 58 4 27 9 47 12 44 2 -2 0 -35 -5 -73z
m442 51 c-3 -9 -8 -14 -10 -11 -3 3 -2 9 2 15 9 16 15 13 8 -4z m88 -70 c-5
-16 -11 -64 -13 -106 -2 -43 -7 -75 -11 -72 -7 4 -3 85 9 178 1 11 3 34 4 50
l1 30 10 -25 c7 -17 7 -34 0 -55z m-203 40 c-6 -14 -13 -23 -15 -21 -5 5 15
46 22 46 3 0 -1 -11 -7 -25z m349 -72 c-2 -16 -4 -3 -4 27 0 30 2 43 4 28 2
-16 2 -40 0 -55z m-255 42 c-2 -14 -8 -28 -13 -30 -9 -6 -4 28 6 45 10 16 13
11 7 -15z m-308 -10 c-4 -8 -1 -15 5 -15 13 0 8 -96 -4 -108 -4 -4 -6 12 -3
36 2 23 0 42 -4 42 -5 0 -8 14 -8 30 0 17 4 30 10 30 5 0 7 -7 4 -15z m125
-17 c0 -27 -2 -29 -8 -13 -5 11 -6 26 -4 33 8 21 13 13 12 -20z m152 -45 c-12
-20 -14 -14 -5 12 4 9 9 14 11 11 3 -2 0 -13 -6 -23z m274 -109 c-4 -46 -10
-84 -13 -84 -4 0 -3 43 3 96 5 54 11 91 13 85 2 -7 1 -51 -3 -97z m-305 21
c-29 -72 -37 -65 -9 9 11 32 23 55 26 52 3 -3 -5 -30 -17 -61z m-400 -65 c-5
-22 -8 -27 -9 -13 -1 21 9 56 14 51 2 -2 0 -19 -5 -38z m177 -7 c-3 -10 -5 -2
-5 17 0 19 2 27 5 18 2 -10 2 -26 0 -35z m182 -32 c-6 -18 -14 -30 -17 -27 -2
3 1 19 8 36 16 40 23 33 9 -9z m-515 7 c-3 -13 -8 -47 -11 -75 -3 -29 -10 -53
-15 -53 -6 0 -8 6 -5 14 3 8 9 42 13 75 3 34 10 61 15 61 4 0 6 -10 3 -22z
m141 -68 c-4 -28 -9 -49 -12 -47 -2 3 -1 28 3 56 4 28 9 50 11 47 3 -3 2 -28
-2 -56z m335 46 c8 -2 -14 -4 -50 -5 -36 0 -59 3 -53 7 12 7 65 6 103 -2z
m217 -8 c-3 -8 -6 -5 -6 6 -1 11 2 17 5 13 3 -3 4 -12 1 -19z m2 -70 c0 6 6
12 12 12 5 0 7 -4 4 -10 -7 -11 21 -19 90 -23 29 -2 14 -4 -37 -5 l-88 -2 1
43 2 42 7 -35 c4 -19 8 -29 9 -22z m148 20 c-3 -7 -5 -2 -5 12 0 14 2 19 5 13
2 -7 2 -19 0 -25z m-814 -45 c-7 -2 -19 -2 -25 0 -7 3 -2 5 12 5 14 0 19 -2
13 -5z"/>
<path d="M7960 6339 c0 -5 5 -7 10 -4 6 3 10 8 10 11 0 2 -4 4 -10 4 -5 0 -10
-5 -10 -11z"/>
<path d="M8314 6373 c3 -10 19 -79 35 -153 17 -74 48 -213 71 -307 58 -251 57
-260 -54 -278 l-61 -10 -7 -60 c-4 -33 -10 -72 -12 -87 l-5 -28 74 0 c138 0
226 46 295 156 41 66 390 758 390 775 0 5 -48 9 -107 9 l-108 0 -46 -108
c-104 -241 -149 -337 -157 -340 -5 -1 -12 28 -16 65 -3 37 -19 138 -34 223
l-27 155 -118 3 c-110 2 -118 1 -113 -15z m224 -53 c0 -15 -2 -18 -5 -8 -3 11
-10 15 -20 11 -11 -4 -14 -2 -9 5 5 8 2 10 -8 6 -9 -3 -16 -1 -16 4 0 6 10 13
23 15 12 2 -18 5 -66 6 l-88 1 5 -37 c3 -21 10 -54 16 -73 11 -39 13 -56 4
-48 -5 6 -43 144 -44 159 0 4 41 7 92 8 51 1 95 4 97 7 8 8 20 -28 19 -56z
m460 41 c10 -6 11 -13 1 -34 -7 -15 -16 -27 -20 -27 -5 0 -6 -6 -3 -14 3 -8 2
-16 -3 -19 -4 -3 -8 8 -8 23 -1 16 2 27 6 24 12 -7 20 29 9 40 -8 8 -9 5 -5
-9 6 -19 6 -19 -8 -2 -9 10 -28 17 -51 17 -29 0 -36 -4 -36 -19 0 -14 -8 -21
-26 -23 -21 -2 -33 -15 -54 -55 -42 -83 -44 -75 -6 16 20 45 36 85 36 87 0 8
155 4 168 -5z m-451 -123 c-3 -7 -5 -2 -5 12 0 14 2 19 5 13 2 -7 2 -19 0 -25z
m368 -79 c-27 -60 -53 -92 -35 -44 12 31 49 95 55 95 2 0 -7 -23 -20 -51z
m-530 22 c-3 -5 -1 -12 5 -16 5 -3 10 -23 9 -43 0 -29 -2 -32 -8 -17 -15 38
-21 85 -10 85 6 0 8 -4 4 -9z m189 -66 c7 -73 0 -62 -12 18 -5 32 -6 55 -1 50
4 -4 10 -35 13 -68z m156 -10 c-18 -42 -35 -74 -38 -71 -2 3 10 39 29 80 18
41 35 73 37 71 2 -2 -11 -37 -28 -80z m-306 -90 c4 -20 3 -25 -3 -15 -5 8 -11
31 -15 50 -7 41 7 13 18 -35z m429 30 c-3 -9 -8 -14 -10 -11 -3 3 -2 9 2 15 9
16 15 13 8 -4z m-259 -45 c4 -31 3 -40 -4 -30 -5 8 -10 30 -10 49 0 45 6 37
14 -19z m80 -12 c-15 -51 -25 -70 -31 -64 -3 3 2 24 12 46 20 44 31 53 19 18z
m146 -22 c-5 -15 -17 -34 -25 -42 -8 -9 -15 -23 -15 -31 0 -9 -3 -13 -7 -10
-6 7 22 80 40 105 15 19 19 8 7 -22z m-380 -11 c0 -14 -2 -25 -4 -25 -2 0 -6
11 -8 25 -3 14 -1 25 3 25 5 0 9 -11 9 -25z m8 -66 c-3 -8 -7 -3 -11 10 -4 17
-3 21 5 13 5 -5 8 -16 6 -23z m9 -51 c-3 -7 -5 -2 -5 12 0 14 2 19 5 13 2 -7
2 -19 0 -25z m299 -6 c-18 -34 -45 -69 -46 -59 0 15 45 95 52 90 5 -2 2 -16
-6 -31z m-278 -78 c-3 -14 -5 -12 -10 9 -3 19 -2 25 4 19 6 -6 8 -18 6 -28z
m223 -21 c-12 -20 -14 -14 -5 12 4 9 9 14 11 11 3 -2 0 -13 -6 -23z m-214 -45
c-3 -7 -5 -2 -5 12 0 14 2 19 5 13 2 -7 2 -19 0 -25z m171 -37 c-58 -101 -126
-167 -151 -142 -8 8 -5 11 12 11 31 0 121 96 121 129 0 11 39 61 48 61 2 0
-11 -26 -30 -59z m-183 -1 c-8 -13 -66 -43 -71 -37 -3 3 12 14 33 25 45 25 46
25 38 12z m-90 -30 c-3 -5 -18 -9 -33 -9 l-27 1 30 8 c17 4 31 8 33 9 2 0 0
-3 -3 -9z m50 -150 c-16 -4 -50 -7 -75 -7 l-45 0 45 7 c25 4 59 7 75 7 l30 1
-30 -8z"/>
<path d="M9157 6383 c-3 -5 -8 -30 -12 -58 -3 -27 -20 -120 -36 -205 -67 -351
-110 -452 -203 -476 -14 -3 -26 -9 -26 -13 0 -11 -20 -135 -26 -160 l-5 -24
80 6 c166 11 236 84 310 322 29 96 91 382 91 423 0 26 6 28 91 24 l71 -4 -5
-41 c-3 -23 -28 -190 -56 -371 -28 -181 -51 -333 -51 -338 0 -4 45 -8 99 -8
86 0 100 2 105 18 3 9 19 107 36 217 64 413 101 651 105 673 l5 22 -284 0
c-157 0 -287 -3 -289 -7z m19 -59 c-4 -20 -10 -34 -13 -30 -3 3 -2 21 1 42 4
20 10 34 13 30 3 -3 2 -21 -1 -42z m529 19 c-12 -68 -27 -161 -31 -193 -2 -19
-9 -57 -14 -83 -6 -26 -11 -62 -11 -80 -1 -22 -3 -26 -6 -12 -5 20 11 155 27
230 5 22 11 66 13 98 l4 57 -49 0 c-32 0 -48 -4 -48 -12 0 -10 -2 -10 -8 0 -7
10 -53 12 -196 11 -103 -1 -190 1 -193 5 -4 3 111 6 255 6 l262 0 -5 -27z
m-560 -179 c-10 -52 -20 -92 -23 -90 -2 3 4 50 14 106 11 55 20 96 23 89 2 -6
-5 -53 -14 -105z m166 4 c-6 -29 -15 -75 -20 -103 -9 -47 -9 -45 -8 32 1 44 6
79 10 76 5 -3 7 3 5 13 -3 17 12 47 20 39 2 -2 -1 -27 -7 -57z m205 -15 c-3
-21 -8 -49 -11 -63 -4 -14 -8 -38 -10 -55 -1 -16 -5 -37 -8 -45 -4 -8 -13 -67
-22 -130 -9 -63 -19 -117 -22 -120 -7 -6 1 60 22 190 8 52 21 132 27 178 6 45
16 82 20 82 5 0 7 -17 4 -37z m-401 -150 c-2 -16 -5 -43 -7 -60 -1 -18 -5 -33
-8 -33 -3 0 -12 -20 -19 -45 -7 -25 -15 -44 -17 -42 -3 3 15 88 42 195 6 24
14 11 9 -15z m156 -44 c-6 -16 -10 -18 -10 -7 -1 22 12 55 16 42 2 -6 -1 -22
-6 -35z m362 -69 c-4 -37 -8 -48 -13 -35 -6 18 8 100 16 92 2 -2 1 -27 -3 -57z
m-397 -71 c-14 -50 -28 -94 -31 -97 -9 -9 -6 10 10 61 8 26 11 47 8 47 -3 0
-1 6 4 13 6 6 14 30 18 52 4 22 9 35 12 28 2 -6 -7 -53 -21 -104z m379 -51
c-4 -35 -11 -67 -17 -73 -6 -7 -7 -5 -4 5 3 8 8 40 10 70 5 65 4 60 12 60 3 0
3 -28 -1 -62z m-565 5 c-11 -17 -11 -17 -6 0 3 10 6 24 7 30 0 9 2 9 5 0 3 -7
0 -20 -6 -30z m-24 -61 c-8 -16 -29 -41 -45 -55 -16 -13 -27 -28 -23 -32 4 -5
1 -5 -5 -1 -7 4 -22 2 -33 -4 -11 -6 -20 -7 -20 -1 0 5 17 16 39 24 26 11 48
30 67 61 31 50 44 55 20 8z m412 -34 c-5 -29 -12 -55 -15 -58 -3 -3 -3 10 1
29 3 18 6 44 6 57 0 13 4 24 9 24 4 0 4 -24 -1 -52z m-258 -23 c-28 -65 -79
-134 -114 -152 -15 -8 -25 -10 -22 -5 3 6 0 13 -6 16 -7 3 -3 3 8 1 16 -4 30
4 53 30 17 20 28 41 25 47 -4 6 -3 8 3 5 6 -4 23 19 39 53 33 70 44 74 14 5z
m405 -89 c-4 -31 -10 -56 -14 -56 -4 0 -3 27 3 60 12 74 20 71 11 -4z m-161 2
c-4 -24 -7 -53 -6 -65 1 -13 -3 -23 -9 -23 -11 0 -6 66 7 113 10 34 16 16 8
-25z m-534 -25 c-10 -16 -11 -15 -6 7 3 14 6 32 7 40 1 8 4 5 6 -7 2 -12 -1
-30 -7 -40z m593 -60 c-7 -2 -21 -2 -30 0 -10 3 -4 5 12 5 17 0 24 -2 18 -5z
m54 1 c-3 -3 -12 -4 -19 -1 -8 3 -5 6 6 6 11 1 17 -2 13 -5z m-607 -13 c0 -4
-11 -6 -25 -3 -14 2 -25 6 -25 8 0 2 11 4 25 4 14 0 25 -4 25 -9z m67 3 c-3
-3 -12 -4 -19 -1 -8 3 -5 6 6 6 11 1 17 -2 13 -5z"/>
<path d="M10053 6378 c-5 -7 -42 -92 -83 -188 -40 -96 -83 -200 -96 -230 -142
-339 -204 -489 -204 -494 0 -4 48 -5 107 -4 l106 3 35 98 35 97 123 0 c141 0
129 10 140 -117 4 -46 10 -83 15 -83 9 0 4 134 -6 166 -4 12 -2 25 4 28 8 5
11 116 11 357 0 315 -2 349 -16 349 -14 0 -14 -3 -4 -15 9 -11 9 -15 1 -15 -6
0 -14 7 -17 15 -4 9 -19 15 -36 15 -16 0 -27 -4 -23 -9 3 -5 1 -13 -5 -16 -6
-4 -9 -1 -8 7 2 7 -3 13 -9 12 -7 -1 -20 -2 -28 -2 -8 -1 -15 -10 -15 -19 0
-14 -2 -15 -9 -5 -6 10 -10 8 -16 -10 -4 -12 -8 -25 -9 -28 -1 -3 -5 -15 -10
-27 -4 -13 -12 -23 -18 -23 -5 0 -8 6 -5 13 3 6 15 36 27 65 l23 52 88 0 c53
0 89 4 89 10 0 15 -175 13 -187 -2z m37 -124 c0 -8 -19 -13 -24 -6 -3 5 1 9 9
9 8 0 15 -2 15 -3z m-90 -86 c0 -33 -4 -48 -9 -40 -7 11 -9 11 -14 -1 -3 -7
-1 -20 4 -28 6 -10 3 -15 -12 -19 -15 -4 -29 -25 -47 -73 -15 -37 -28 -64 -30
-59 -1 5 17 57 42 114 25 58 48 117 52 132 10 40 14 31 14 -26z m140 -22 c0
-17 38 -274 45 -303 5 -23 4 -23 -85 -23 l-90 0 11 28 c32 80 99 282 99 296 0
9 5 16 10 16 6 0 10 -6 10 -14z m27 -38 c-3 -8 -6 -5 -6 6 -1 11 2 17 5 13 3
-3 4 -12 1 -19z m-67 5 c0 -5 -5 -15 -10 -23 -8 -12 -10 -11 -10 8 0 12 5 22
10 22 6 0 10 -3 10 -7z m77 -75 c-3 -8 -6 -5 -6 6 -1 11 2 17 5 13 3 -3 4 -12
1 -19z m-126 -59 c-5 -13 -10 -19 -10 -12 -1 15 10 45 15 40 3 -2 0 -15 -5
-28z m136 -26 c-3 -10 -5 -4 -5 12 0 17 2 24 5 18 2 -7 2 -21 0 -30z m-147
-11 c0 -5 -7 -17 -16 -28 -8 -10 -14 -14 -11 -9 2 6 7 18 10 28 7 17 17 23 17
9z m-174 -68 c-8 -21 -15 -34 -15 -28 -1 15 20 76 25 71 2 -2 -2 -21 -10 -43z
m331 -6 c-3 -7 -5 -2 -5 12 0 14 2 19 5 13 2 -7 2 -19 0 -25z m-184 2 c-3 -11
-7 -20 -9 -20 -2 0 -4 9 -4 20 0 11 4 20 9 20 5 0 7 -9 4 -20z m41 -69 c3 -4
-6 -6 -19 -3 -14 2 -25 6 -25 8 0 8 39 4 44 -5z m-270 -126 c-20 -47 -39 -84
-41 -81 -3 2 9 34 26 71 17 36 34 78 38 93 3 15 8 22 10 15 2 -6 -12 -50 -33
-98z m313 -2 c-20 -2 -52 -2 -70 0 -17 2 0 4 38 4 39 0 53 -2 32 -4z m-164
-33 c-3 -11 -9 -20 -13 -20 -5 0 -6 9 -3 20 3 11 9 20 13 20 5 0 6 -9 3 -20z
m-37 -82 c-9 -20 -13 -38 -10 -41 3 -3 0 -8 -6 -12 -14 -9 -8 30 10 68 19 39
23 27 6 -15z m-184 -50 c-8 -8 -9 -4 -5 13 4 13 8 18 11 10 2 -7 -1 -18 -6
-23z m138 -18 c0 -5 -15 -9 -32 -9 l-33 1 30 8 c17 4 31 8 33 9 1 0 2 -3 2 -9z
m-117 -7 c-7 -2 -21 -2 -30 0 -10 3 -4 5 12 5 17 0 24 -2 18 -5z"/>
<path d="M2738 5273 c-24 -36 -57 -92 -348 -588 -210 -357 -250 -427 -250
-440 0 -7 32 -68 72 -136 39 -68 167 -293 285 -499 118 -206 225 -392 239
-412 l24 -38 608 0 608 0 47 -78 c81 -134 82 -118 -11 -267 -121 -196 -121
-154 1 -361 l105 -179 215 -3 215 -2 20 27 c10 16 61 97 112 181 l92 153 -109
182 -110 182 -175 3 c-152 2 -177 5 -190 20 -23 26 -118 190 -118 202 0 6 11
27 24 48 83 127 567 973 562 981 -2 3 -52 89 -111 191 -60 102 -155 266 -213
365 -222 383 -286 490 -296 497 -6 4 -295 8 -642 8 l-631 0 -25 -37z m1346
-72 c25 -43 46 -81 46 -85 0 -4 -9 -2 -20 4 -11 6 -20 18 -20 27 0 23 -41 100
-64 121 -10 9 -16 11 -12 5 4 -7 2 -13 -3 -13 -12 0 -15 23 -4 33 11 11 28
-10 77 -92z m-1308 67 c4 -6 3 -8 -2 -5 -6 3 -25 -21 -43 -53 -17 -33 -37 -63
-43 -66 -10 -7 43 95 65 124 12 15 14 15 23 0z m-130 -204 c-3 -15 -14 -37
-26 -49 -11 -12 -20 -26 -20 -31 0 -6 -12 -21 -26 -35 -20 -18 -15 -5 23 58
26 45 49 82 51 83 1 0 0 -12 -2 -26z m1579 -104 c26 -47 50 -89 52 -93 3 -5
-4 -3 -16 5 -12 7 -21 21 -21 30 0 10 -16 35 -35 55 -19 20 -35 41 -35 45 0 4
0 10 0 13 0 3 -6 18 -15 35 -8 16 -15 32 -15 36 0 13 37 -42 85 -126z m-1684
-63 c-10 -9 -11 -8 -5 6 3 10 9 15 12 12 3 -3 0 -11 -7 -18z m-11 -24 c0 -5
-10 -19 -21 -33 l-21 -25 18 33 c18 32 24 38 24 25z m-50 -93 c-8 -5 -11 -10
-6 -10 5 0 2 -7 -5 -17 -8 -9 -14 -19 -14 -22 0 -3 -3 -5 -6 -4 -11 4 -70
-118 -63 -129 4 -6 3 -8 -3 -5 -13 8 -85 -98 -81 -121 2 -9 -5 -18 -14 -20
-16 -3 -15 1 5 37 77 139 179 301 190 301 8 0 7 -4 -3 -10z m1901 -92 c84
-150 91 -164 76 -145 -8 9 -19 17 -26 17 -6 0 -12 6 -12 13 -2 24 -5 32 -18
59 -8 15 -17 25 -21 23 -4 -3 -7 3 -6 12 0 9 -5 18 -13 21 -9 3 -11 0 -6 -8 5
-9 4 -11 -4 -6 -9 6 -9 11 -1 21 9 10 6 16 -9 25 -18 9 -32 60 -17 60 3 0 28
-42 57 -92z m-200 -65 c13 -16 12 -17 -3 -4 -17 13 -22 21 -14 21 2 0 10 -8
17 -17z m319 -134 c0 -18 -18 -9 -23 12 -4 16 -3 18 9 8 8 -6 14 -15 14 -20z
m29 -53 c27 -43 27 -58 0 -26 -11 14 -18 20 -15 13 4 -6 3 -14 -2 -17 -4 -2
-7 11 -7 30 0 19 1 34 2 34 1 0 11 -15 22 -34z m-2277 -43 c-78 -114 -86 -137
-65 -184 9 -22 24 -41 33 -44 8 -3 17 -17 18 -31 2 -31 19 -54 37 -54 15 0 28
-28 19 -42 -3 -5 2 -18 11 -28 10 -11 12 -20 6 -24 -6 -4 -20 13 -33 36 -12
24 -27 51 -33 60 -49 80 -85 149 -85 165 0 11 16 46 36 79 20 32 44 72 52 89
9 16 17 24 19 18 3 -7 -4 -25 -15 -40z m396 30 c-32 -2 -84 -2 -115 0 -32 2
-6 3 57 3 63 0 89 -1 58 -3z m255 0 c-24 -2 -62 -2 -85 0 -24 2 -5 4 42 4 47
0 66 -2 43 -4z m270 0 c-7 -2 -21 -2 -30 0 -10 3 -4 5 12 5 17 0 24 -2 18 -5z
m295 0 c-32 -2 -84 -2 -115 0 -32 2 -6 3 57 3 63 0 89 -1 58 -3z m250 0 c-21
-2 -55 -2 -75 0 -21 2 -4 4 37 4 41 0 58 -2 38 -4z m90 0 c-10 -2 -26 -2 -35
0 -10 3 -2 5 17 5 19 0 27 -2 18 -5z m120 0 c-10 -2 -28 -2 -40 0 -13 2 -5 4
17 4 22 1 32 -1 23 -4z m180 0 c-15 -2 -42 -2 -60 0 -18 2 -6 4 27 4 33 0 48
-2 33 -4z m210 0 c-16 -2 -40 -2 -55 0 -16 2 -3 4 27 4 30 0 43 -2 28 -4z
m-1101 -47 c31 -36 30 -86 -2 -124 -24 -29 -24 -29 -5 -47 43 -39 12 -123 -56
-151 -41 -17 -104 -18 -140 -2 -23 11 -25 16 -20 46 7 44 11 48 41 34 39 -18
83 -15 94 6 14 27 -1 43 -48 49 -31 4 -41 10 -37 20 4 8 6 23 6 34 0 15 7 19
31 19 41 0 69 16 69 41 0 27 -25 34 -71 22 -34 -9 -39 -8 -44 8 -17 51 27 81
109 75 39 -3 55 -9 73 -30z m728 -41 l-6 -70 43 67 43 67 52 1 53 0 -59 -81
c-49 -66 -58 -85 -51 -102 4 -12 22 -53 39 -90 17 -38 31 -73 31 -78 0 -5 -22
-9 -49 -9 l-49 0 -29 70 c-15 38 -31 70 -35 70 -4 0 -10 -31 -14 -70 l-7 -70
-43 0 c-53 0 -51 -14 -24 200 11 85 20 157 20 160 0 3 20 5 45 5 l46 1 -6 -71z
m-1235 30 l0 -35 -70 0 c-49 0 -70 -4 -70 -12 0 -7 -3 -22 -6 -33 -5 -19 -1
-20 34 -17 50 5 100 -20 108 -54 18 -72 -29 -147 -102 -164 -47 -11 -164 -13
-164 -2 0 4 9 79 20 167 11 88 20 166 20 173 0 9 30 12 115 12 l115 0 0 -35z
m38 -35 c0 -22 -1 -22 -8 5 -4 17 -8 39 -8 50 0 16 2 15 8 -5 4 -14 8 -36 8
-50z m238 48 c-3 -13 -6 -30 -6 -38 0 -12 -12 -14 -65 -12 l-65 4 0 -36 0 -36
48 0 48 0 -4 -40 -4 -40 -49 0 c-36 0 -49 -4 -49 -14 0 -8 -3 -21 -6 -30 -5
-14 4 -16 61 -16 l66 0 -3 -37 -3 -38 -114 -3 -114 -3 6 53 c4 29 14 110 23
181 l17 127 110 0 c109 0 109 0 103 -22z m571 1 c-3 -12 -14 -93 -23 -180
l-17 -159 -49 0 c-32 0 -48 4 -48 13 1 6 9 69 19 140 l17 127 -28 2 c-15 0
-34 1 -40 2 -9 1 -17 -42 -28 -139 l-15 -140 -49 -3 c-49 -3 -49 -3 -43 25 3
15 13 97 24 181 l18 152 134 0 c131 0 133 0 128 -21z m21 -41 c-4 -34 -11 -64
-15 -67 -3 -3 -3 12 0 34 4 22 7 52 7 68 0 15 4 27 8 27 5 0 5 -28 0 -62z
m242 38 c0 -52 -8 -57 -70 -50 -54 6 -57 5 -63 -17 -12 -46 -9 -49 44 -49 43
0 50 -3 45 -16 -3 -9 -6 -27 -6 -40 0 -22 -4 -24 -49 -24 -35 0 -51 -4 -55
-16 -15 -39 -8 -44 60 -44 56 0 65 -2 60 -16 -3 -9 -6 -27 -6 -40 0 -24 0 -24
-110 -24 -98 0 -110 2 -110 18 0 9 9 78 20 152 11 74 20 147 20 163 l0 27 110
0 c110 0 110 0 110 -24z m185 14 c-3 -5 -12 -7 -20 -3 -21 7 -19 13 6 13 11 0
18 -4 14 -10z m361 -128 c12 -73 24 -153 28 -178 l6 -44 -45 0 c-43 0 -44 1
-51 35 -6 34 -7 35 -54 35 -45 0 -48 -2 -56 -32 -9 -30 -14 -33 -52 -36 -33
-2 -42 0 -42 12 0 9 27 82 61 163 34 82 63 156 66 166 5 15 15 17 62 15 l56
-3 21 -133z m1 116 c-3 -8 -6 -5 -6 6 -1 11 2 17 5 13 3 -3 4 -12 1 -19z
m-1350 -19 c2 -12 -1 -18 -7 -14 -5 3 -10 16 -10 27 0 26 13 16 17 -13z m-560
-41 c-2 -13 -4 -3 -4 22 0 25 2 35 4 23 2 -13 2 -33 0 -45z m1380 25 c-3 -10
-5 -4 -5 12 0 17 2 24 5 18 2 -7 2 -21 0 -30z m766 -30 c29 -46 32 -53 18 -53
-5 0 -12 9 -16 20 -3 11 -9 19 -13 19 -19 -3 -23 3 -12 17 11 12 11 15 -1 12
-9 -2 -15 7 -16 27 -2 18 0 24 5 15 4 -8 19 -34 35 -57z m-1336 -20 c-3 -10
-5 -2 -5 17 0 19 2 27 5 18 2 -10 2 -26 0 -35z m823 17 c-12 -16 -24 -30 -26
-30 -3 0 4 14 16 30 12 17 24 30 26 30 3 0 -4 -13 -16 -30z m86 -11 c-8 -21
-15 -27 -15 -16 -1 17 20 59 27 53 1 -2 -4 -19 -12 -37z m201 9 c-3 -7 -5 -2
-5 12 0 14 2 19 5 13 2 -7 2 -19 0 -25z m-1249 -19 c-3 -8 -7 -3 -11 10 -4 17
-3 21 5 13 5 -5 8 -16 6 -23z m-508 14 c-14 -3 -28 -10 -32 -17 -5 -7 -8 -5
-8 7 0 13 8 17 33 16 27 -2 28 -2 7 -6z m73 0 c-7 -2 -21 -2 -30 0 -10 3 -4 5
12 5 17 0 24 -2 18 -5z m255 0 c-16 -2 -40 -2 -55 0 -16 2 -3 4 27 4 30 0 43
-2 28 -4z m492 -10 c0 -15 -2 -15 -9 -4 -5 8 -16 11 -25 8 -9 -4 -16 -2 -16 3
0 6 11 10 25 10 17 0 25 -5 25 -17z m325 10 c-27 -3 -53 -10 -57 -16 -5 -8 -8
-6 -8 6 0 14 9 17 58 15 l57 -2 -50 -3z m-1318 -65 c-2 -13 -4 -5 -4 17 -1 22
1 32 4 23 2 -10 2 -28 0 -40z m196 45 c-7 -2 -19 -2 -25 0 -7 3 -2 5 12 5 14
0 19 -2 13 -5z m1184 -15 c-3 -8 -6 -5 -6 6 -1 11 2 17 5 13 3 -3 4 -12 1 -19z
m-1090 -25 c-3 -10 -5 -4 -5 12 0 17 2 24 5 18 2 -7 2 -21 0 -30z m653 -8 c-6
-30 -8 -33 -9 -13 -1 25 8 62 14 56 2 -2 -1 -21 -5 -43z m1014 -64 c5 -55 5
-55 -9 14 -15 78 -18 116 -5 71 5 -15 11 -53 14 -85z m-977 52 c-3 -10 -5 -2
-5 17 0 19 2 27 5 18 2 -10 2 -26 0 -35z m133 -23 l-8 -55 0 50 c1 28 3 54 6
58 9 18 10 -1 2 -53z m-310 -7 c-11 -17 -11 -17 -6 0 3 10 7 28 7 40 2 22 2
22 6 0 2 -12 -1 -30 -7 -40z m547 35 c-3 -8 -6 -5 -6 6 -1 11 2 17 5 13 3 -3
4 -12 1 -19z m20 -40 c-2 -13 -4 -3 -4 22 0 25 2 35 4 23 2 -13 2 -33 0 -45z
m229 53 c-3 -5 1 -25 9 -45 22 -52 17 -59 -6 -8 -17 39 -18 62 -3 62 3 0 3 -4
0 -9z m-1019 -33 c-3 -7 -5 -2 -5 12 0 14 2 19 5 13 2 -7 2 -19 0 -25z m-70
-15 c-3 -10 -5 -4 -5 12 0 17 2 24 5 18 2 -7 2 -21 0 -30z m1664 10 c-12 -20
-14 -14 -5 12 4 9 9 14 11 11 3 -2 0 -13 -6 -23z m-834 -15 c-3 -8 -6 -5 -6 6
-1 11 2 17 5 13 3 -3 4 -12 1 -19z m-1350 -35 c-3 -10 -5 -4 -5 12 0 17 2 24
5 18 2 -7 2 -21 0 -30z m980 -10 c-3 -10 -5 -2 -5 17 0 19 2 27 5 18 2 -10 2
-26 0 -35z m1154 -20 c-17 -26 -31 -45 -31 -41 0 13 23 58 30 58 4 0 10 10 13
22 4 12 9 19 13 15 4 -3 -7 -28 -25 -54z m-1194 -5 c-2 -13 -4 -5 -4 17 -1 22
1 32 4 23 2 -10 2 -28 0 -40z m317 37 c3 -8 1 -15 -4 -15 -6 0 -10 7 -10 15 0
8 2 15 4 15 2 0 6 -7 10 -15z m39 8 c-7 -2 -19 -2 -25 0 -7 3 -2 5 12 5 14 0
19 -2 13 -5z m-486 -35 c-3 -8 -6 -5 -6 6 -1 11 2 17 5 13 3 -3 4 -12 1 -19z
m293 -65 c-11 -17 -11 -17 -6 0 3 10 7 33 8 50 l1 32 4 -32 c2 -18 -1 -41 -7
-50z m267 30 c-3 -10 -5 -2 -5 17 0 19 2 27 5 18 2 -10 2 -26 0 -35z m130 25
c-3 -8 -6 -5 -6 6 -1 11 2 17 5 13 3 -3 4 -12 1 -19z m-1510 -45 c-3 -10 -5
-2 -5 17 0 19 2 27 5 18 2 -10 2 -26 0 -35z m810 0 c-3 -10 -5 -4 -5 12 0 17
2 24 5 18 2 -7 2 -21 0 -30z m170 -10 c-3 -10 -5 -2 -5 17 0 19 2 27 5 18 2
-10 2 -26 0 -35z m1010 -10 c-3 -10 -5 -2 -5 17 0 19 2 27 5 18 2 -10 2 -26 0
-35z m-127 28 c0 -4 -11 -6 -25 -3 -14 2 -25 6 -25 8 0 2 11 4 25 4 14 0 25
-4 25 -9z m-1100 -36 c-7 -8 -17 -15 -23 -15 -6 0 -2 7 9 15 25 19 30 19 14 0z
m-553 -11 c-3 -3 -12 -4 -19 -1 -8 3 -5 6 6 6 11 1 17 -2 13 -5z m-74 -11
c-24 -2 -62 -2 -85 0 -24 2 -5 4 42 4 47 0 66 -2 43 -4z m340 0 c-29 -2 -78
-2 -110 0 -32 2 -8 3 52 3 61 0 87 -1 58 -3z m420 0 c-13 -2 -33 -2 -45 0 -13
2 -3 4 22 4 25 0 35 -2 23 -4z m175 0 c-16 -2 -40 -2 -55 0 -16 2 -3 4 27 4
30 0 43 -2 28 -4z m272 0 c0 -5 -33 -7 -72 -5 -125 4 -137 9 -30 10 56 1 102
-1 102 -5z m123 0 c-13 -2 -35 -2 -50 0 -16 2 -5 4 22 4 28 0 40 -2 28 -4z
m170 0 c-13 -2 -33 -2 -45 0 -13 2 -3 4 22 4 25 0 35 -2 23 -4z m105 0 c-10
-2 -28 -2 -40 0 -13 2 -5 4 17 4 22 1 32 -1 23 -4z m215 0 c-13 -2 -33 -2 -45
0 -13 2 -3 4 22 4 25 0 35 -2 23 -4z m131 -8 c-4 -8 -11 -15 -16 -15 -6 0 -5
6 2 15 7 8 14 15 16 15 2 0 1 -7 -2 -15z m-14 -31 c0 -8 -19 -13 -24 -6 -3 5
1 9 9 9 8 0 15 -2 15 -3z m-2140 -76 c0 -5 8 -8 18 -8 13 0 14 -2 4 -9 -11 -7
-11 -9 2 -14 9 -4 16 -15 16 -25 0 -10 15 -43 33 -74 34 -55 50 -88 43 -88 -7
0 -89 145 -89 158 0 6 -4 12 -8 12 -5 0 -20 24 -34 53 -21 42 -22 47 -6 27 11
-14 21 -28 21 -32z m2095 13 c-18 -36 -21 -38 -21 -12 0 11 3 18 7 15 4 -2 11
5 14 17 4 11 9 18 12 16 2 -3 -3 -19 -12 -36z m-51 -88 c-54 -94 -61 -103 -69
-95 -5 4 -5 2 -2 -5 8 -13 -1 -43 -14 -43 -4 0 -7 6 -5 13 3 6 7 25 10 40 4
15 10 25 15 22 5 -2 16 11 26 31 16 34 53 84 63 84 2 0 -9 -21 -24 -47z
m-1884 -200 c5 -7 10 -17 10 -23 0 -5 7 -10 15 -10 10 0 14 -9 13 -24 -1 -14
-6 -22 -11 -19 -5 3 -6 12 -3 20 3 8 1 11 -4 8 -5 -3 -21 18 -35 47 -14 29
-19 44 -11 33 9 -11 20 -25 26 -32z m1235 -23 c3 -6 -1 -7 -9 -4 -18 7 -21 14
-7 14 6 0 13 -4 16 -10z m507 -22 c-9 -17 -24 -42 -32 -57 -9 -15 -25 -39 -37
-54 -16 -21 -22 -24 -27 -12 -3 8 -1 15 4 15 6 0 10 9 10 20 0 11 7 20 15 20
9 0 18 8 22 18 3 9 15 27 26 39 10 12 17 26 13 31 -3 5 1 9 9 9 11 0 11 -6 -3
-29z m-409 -43 c-3 -9 -8 -14 -10 -11 -3 3 -2 9 2 15 9 16 15 13 8 -4z m-1224
-18 c24 15 25 15 12 0 -8 -10 -11 -20 -8 -24 4 -3 2 -12 -4 -20 -7 -8 -8 -13
-1 -13 5 0 12 -9 15 -20 3 -11 1 -20 -5 -20 -5 0 -6 -5 -3 -10 4 -6 10 -8 15
-5 5 3 11 2 14 -3 2 -4 -4 -8 -13 -9 -17 -1 -58 59 -83 120 -7 17 -6 17 14 3
20 -14 24 -14 47 1z m1519 -139 c-63 -105 -90 -148 -94 -148 -3 0 0 8 5 19 6
10 7 22 3 26 -4 5 -2 5 5 2 15 -9 23 14 11 36 -7 13 -4 17 12 17 11 0 19 3 19
8 -3 19 2 33 11 27 5 -3 12 6 16 20 5 20 26 42 41 45 1 0 -12 -24 -29 -52z
m-1480 -10 c-2 -7 9 -14 23 -16 22 -3 26 -8 27 -39 2 -49 11 -75 24 -67 6 4 8
2 5 -3 -4 -6 -1 -22 6 -34 12 -24 13 -24 172 -22 88 1 170 4 183 6 12 2 22 1
22 -4 0 -4 10 -6 23 -3 17 3 308 5 477 2 14 0 52 0 85 1 161 5 285 0 285 -10
0 -5 5 -7 10 -4 13 8 9 -17 -4 -27 -5 -3 -16 0 -24 8 -12 12 -105 14 -616 14
l-601 -1 -32 53 c-17 29 -29 56 -26 60 2 5 0 8 -6 8 -6 0 -20 18 -31 40 -23
45 -24 50 -10 50 6 0 9 -6 8 -12z m776 -16 c3 -5 -1 -9 -9 -9 -8 0 -12 4 -9 9
3 4 7 8 9 8 2 0 6 -4 9 -8z m626 -171 c0 -5 18 -39 41 -76 22 -37 37 -70 33
-73 -4 -4 -9 -1 -11 6 -3 6 -9 9 -15 6 -5 -3 -9 0 -7 7 3 26 -1 39 -12 39 -5
0 -8 -4 -5 -8 3 -5 -1 -9 -7 -9 -9 0 -12 10 -9 29 3 17 0 28 -7 28 -7 0 -9 4
-6 10 3 5 1 19 -5 30 -7 13 -7 20 0 20 5 0 10 -4 10 -9z m-41 -48 c-1 -5 2
-19 6 -31 6 -18 10 -20 16 -10 6 9 9 9 9 1 0 -26 -19 -21 -34 8 -19 38 -19 39
-6 39 6 0 10 -3 9 -7z m69 -108 c-1 -16 2 -39 7 -50 6 -15 3 -14 -11 4 -9 14
-18 32 -19 40 0 9 -4 22 -8 28 -5 8 0 11 12 10 15 -1 19 -8 19 -32z m79 -30
c9 -25 -4 -29 -17 -6 -7 15 -7 21 0 21 6 0 13 -7 17 -15z m366 -29 c4 -10 -5
-15 -34 -18 -22 -2 -42 0 -45 3 -2 4 -18 4 -34 -1 -28 -8 -34 -6 -31 13 2 12
-34 8 -47 -5 -9 -9 -12 -9 -12 1 0 7 -4 10 -10 6 -5 -3 -7 -13 -4 -23 5 -14 4
-14 -4 -2 -6 8 -8 18 -6 22 3 4 -4 8 -15 8 -24 0 -26 -17 -6 -44 13 -18 16
-18 40 -2 22 15 26 15 31 2 5 -12 18 -14 66 -10 41 4 58 2 53 -5 -8 -15 -195
-15 -195 -1 0 6 -9 21 -20 33 l-21 21 5 -24 c2 -14 9 -24 15 -22 6 1 11 -2 11
-8 0 -12 -87 -14 -94 -2 -3 5 5 8 17 7 33 -3 49 13 35 35 -7 10 -16 16 -20 14
-4 -3 -8 0 -8 5 0 7 55 11 164 11 131 0 165 -3 169 -14z m-429 -38 c-4 -13 -7
-31 -6 -40 0 -10 -6 -18 -15 -18 -9 0 -13 -3 -10 -7 4 -3 -1 -12 -11 -20 -9
-8 -12 -12 -5 -9 6 4 14 2 18 -4 3 -5 1 -11 -4 -11 -6 -1 -15 -2 -21 -3 -23
-3 -8 -21 18 -21 24 0 27 3 26 33 -1 37 1 39 16 13 8 -15 5 -28 -11 -55 -20
-35 -46 -40 -35 -7 5 12 2 11 -9 -3 -14 -18 -15 -18 -15 -2 0 10 -5 14 -11 11
-6 -4 -8 -9 -5 -13 3 -3 -2 -11 -12 -18 -14 -11 -15 -15 -3 -26 8 -7 11 -8 8
-3 -3 6 7 11 23 11 l29 2 -23 -37 c-24 -38 -53 -52 -53 -26 0 8 2 13 5 10 9
-9 42 16 42 33 -1 15 -2 15 -13 2 -7 -9 -19 -14 -28 -12 -9 1 -22 -5 -30 -14
-12 -16 -12 -17 1 -9 9 5 7 -1 -5 -16 -15 -18 -16 -20 -2 -10 13 11 17 11 17
1 0 -8 7 -21 16 -31 15 -16 14 -17 -5 -12 -12 3 -21 9 -21 14 0 5 -5 9 -10 9
-6 0 -3 -11 6 -25 9 -14 14 -32 10 -40 -3 -8 -1 -15 5 -15 6 0 9 -7 5 -15 -3
-8 -1 -15 4 -15 6 0 10 -8 10 -19 0 -10 7 -24 15 -31 8 -7 12 -17 8 -23 -4 -7
0 -8 11 -4 13 5 17 3 13 -7 -3 -8 1 -20 8 -26 8 -7 14 -15 13 -18 -1 -7 18
-57 28 -73 3 -5 3 -9 0 -9 -3 0 -15 17 -26 38 -11 20 -24 44 -30 52 -65 103
-120 202 -120 216 0 22 77 154 94 160 7 3 13 11 13 18 0 23 44 86 55 80 6 -4
8 -2 4 4 -3 6 -1 22 5 36 15 32 23 34 13 4z m331 2 c-3 -5 -11 -10 -16 -10 -6
0 -7 5 -4 10 3 6 11 10 16 10 6 0 7 -4 4 -10z m171 -75 c40 -72 46 -95 24 -95
-5 0 -7 7 -4 15 7 18 -34 87 -47 79 -10 -6 -29 37 -29 68 0 28 4 23 56 -67z
m-447 32 c-8 -7 -18 -21 -22 -31 -4 -10 -10 -16 -14 -13 -8 9 25 57 40 57 8
-1 7 -5 -4 -13z m403 -134 l80 -132 -65 -103 c-35 -57 -69 -113 -76 -125 -11
-22 -16 -23 -171 -23 l-159 0 -54 88 c-29 48 -64 105 -77 128 l-23 41 68 114
c100 166 74 150 247 147 l149 -3 81 -132z m-12 87 c0 -16 -2 -30 -5 -30 -2 0
-11 14 -20 30 -15 29 -15 30 5 30 16 0 20 -7 20 -30z m40 -61 c0 -5 5 -7 11
-4 6 4 9 1 7 -7 -2 -7 2 -15 7 -17 6 -2 15 -11 21 -19 9 -13 12 -13 17 2 4 10
3 15 -3 11 -6 -3 -10 -2 -10 4 0 5 4 12 9 16 13 7 34 -32 25 -47 -4 -6 -3 -8
4 -5 5 4 22 -13 37 -39 24 -40 25 -49 15 -74 -7 -16 -20 -35 -29 -42 -13 -10
-14 -10 -3 2 6 8 12 33 12 57 0 36 -4 45 -22 52 -35 13 -51 3 -34 -21 16 -23
7 -59 -22 -91 -14 -16 -14 -20 -2 -29 12 -8 12 -9 -2 -4 -13 4 -18 0 -18 -13
0 -10 -9 -26 -20 -36 -10 -9 -18 -22 -17 -28 1 -6 -7 -13 -18 -15 -18 -4 -19
-3 -5 14 9 11 26 39 39 64 13 25 32 53 43 63 22 22 23 55 2 85 -8 12 -12 27
-8 34 4 6 3 8 -2 5 -6 -3 -22 17 -37 44 -23 39 -25 49 -13 49 9 0 16 -5 16
-11z m-550 -221 c18 -37 18 -40 3 -22 -10 11 -24 19 -30 17 -17 -6 -26 16 -13
32 17 20 17 20 40 -27z m585 -137 c-50 -81 -71 -108 -80 -101 -6 5 -15 7 -18
3 -4 -3 -7 -1 -7 6 0 8 8 10 23 5 12 -3 19 -3 16 0 -4 4 3 18 15 30 21 24 51
90 36 81 -5 -3 -12 0 -16 6 -4 8 -3 9 4 5 7 -4 12 -2 12 4 0 6 5 8 10 5 6 -3
10 -1 10 5 0 6 5 8 11 4 8 -4 9 1 4 16 -6 18 -4 22 8 17 11 -4 18 1 22 14 4
11 9 18 12 15 3 -2 -25 -55 -62 -115z m-518 31 c22 -40 29 -63 22 -73 -7 -11
-9 -10 -9 7 0 12 -10 36 -23 55 -27 40 -39 69 -29 69 4 0 21 -26 39 -58z m437
-40 c3 -5 -1 -9 -9 -9 -8 0 -12 4 -9 9 3 4 7 8 9 8 2 0 6 -4 9 -8z m41 -1 c3
-5 0 -13 -6 -17 -7 -4 -9 -3 -5 4 3 5 0 13 -6 15 -9 4 -10 6 -1 6 6 1 14 -3
18 -8z m-52 -28 c-7 -2 -13 -11 -13 -18 0 -23 -22 -29 -87 -27 -47 3 -63 0
-63 -10 0 -8 -3 -9 -8 -3 -12 17 -50 17 -76 0 -14 -9 -30 -14 -36 -10 -5 3
-10 1 -10 -5 0 -6 10 -14 22 -19 19 -7 15 -9 -24 -15 -56 -8 -113 1 -129 20
-10 12 -1 14 52 13 45 0 58 -3 44 -9 -18 -8 -17 -9 6 -9 23 -1 26 2 21 24 -3
16 -11 25 -21 24 -9 -1 -19 0 -23 1 -5 1 -13 3 -20 4 -6 0 -13 8 -15 16 -3 10
-2 11 4 4 5 -8 62 -11 176 -10 149 1 170 3 178 19 6 9 15 17 22 16 9 0 9 -2 0
-6z m-212 -65 c1 -7 1 -16 0 -20 0 -5 8 -8 20 -8 13 0 18 4 13 13 -5 8 -2 7 9
-2 12 -9 40 -14 82 -13 36 1 65 -2 65 -6 0 -4 -42 -6 -93 -6 -122 2 -134 3
-121 12 6 4 10 15 8 25 -1 9 2 17 7 17 5 0 10 -6 10 -12z m219 -25 c0 -7 -4
-13 -10 -13 -5 0 -10 4 -10 9 0 5 -8 12 -17 14 -10 3 -6 4 10 4 15 -1 27 -7
27 -14z"/>
<path d="M2546 4169 c-9 -47 -8 -49 18 -49 26 0 56 23 56 44 0 19 -22 36 -46
36 -16 0 -23 -8 -28 -31z m44 -29 c-20 -13 -30 -12 -30 1 0 5 4 8 9 4 5 -3 13
0 16 6 4 5 10 8 13 4 4 -3 0 -10 -8 -15z"/>
<path d="M4254 4242 l-19 -58 27 4 c26 4 27 6 21 56 -3 28 -7 52 -8 54 -1 1
-11 -24 -21 -56z m13 -34 c-3 -8 -6 -5 -6 6 -1 11 2 17 5 13 3 -3 4 -12 1 -19z"/>
<path d="M4656 2712 c-12 -11 -5 -17 19 -18 14 -1 25 2 25 6 0 10 -37 20 -44
12z"/>
<path d="M4015 2590 c-3 -5 -1 -10 4 -10 6 0 11 5 11 10 0 6 -2 10 -4 10 -3 0
-8 -4 -11 -10z"/>
<path d="M4257 2339 c8 -8 16 -8 30 0 16 9 14 10 -11 11 -22 0 -27 -3 -19 -11z"/>
<path d="M5952 5220 c-66 -14 -159 -69 -207 -123 -96 -106 -147 -262 -149
-457 -2 -199 39 -287 162 -347 50 -25 68 -28 147 -28 126 1 189 27 276 114 89
90 134 188 164 358 44 250 -13 414 -161 466 -61 21 -172 30 -232 17z m171 -17
c3 -5 -35 -8 -83 -8 -48 0 -86 3 -83 8 2 4 40 7 83 7 43 0 81 -3 83 -7z m42
-13 c3 -6 -1 -7 -9 -4 -18 7 -21 14 -7 14 6 0 13 -4 16 -10z m-255 -4 c0 -2
-24 -16 -52 -31 -62 -32 -110 -74 -101 -88 4 -6 1 -7 -7 -2 -10 6 -12 4 -7 -9
4 -9 3 -15 -2 -11 -5 3 -12 -1 -14 -7 -4 -10 -6 -10 -6 0 -2 21 80 102 129
127 44 24 60 29 60 21z m321 -22 c29 -14 89 -96 89 -118 0 -6 -12 10 -27 36
-14 26 -30 45 -35 42 -4 -3 -11 2 -15 11 -3 10 -20 23 -37 31 -17 7 -25 13
-18 14 7 0 27 -7 43 -16z m-171 -94 c11 -7 4 -9 -25 -8 -22 2 -51 -1 -65 -5
l-25 -8 25 15 c29 18 68 20 90 6z m55 -30 c10 -11 25 -20 34 -20 14 0 14 -2 1
-10 -8 -5 -10 -10 -5 -10 12 0 14 -15 15 -110 2 -79 -8 -172 -22 -223 -17 -59
-18 -39 -3 48 27 153 15 284 -30 322 -14 13 -22 23 -17 23 5 0 17 -9 27 -20z
m-175 7 c0 -2 -10 -12 -22 -23 l-23 -19 19 23 c18 21 26 27 26 19z m133 -8
c47 -21 61 -64 60 -179 -2 -228 -94 -420 -202 -420 -86 0 -116 49 -115 190 0
138 37 281 93 359 37 52 111 74 164 50z m269 -149 c-2 -58 -6 -123 -11 -145
-7 -32 -9 -22 -8 51 1 52 6 90 11 86 5 -3 6 5 2 19 -3 13 -8 48 -10 78 -2 41
-1 49 7 35 6 -11 10 -66 9 -124z m-646 93 c-8 -15 -15 -25 -16 -21 0 12 23 58
27 54 3 -2 -2 -17 -11 -33z m181 -16 c-13 -18 -27 -41 -30 -52 -3 -15 -5 -13
-6 8 -1 19 8 36 27 52 37 33 39 31 9 -8z m-207 -46 c-6 -12 -10 -27 -9 -34 1
-6 -5 -28 -13 -47 -13 -29 -27 -108 -28 -157 0 -7 -4 -13 -9 -13 -9 0 -7 15
15 132 15 78 41 154 50 145 3 -3 1 -15 -6 -26z m147 -126 c-10 -57 -16 -70
-32 -72 -11 -2 -14 0 -8 3 13 6 25 43 38 119 4 22 9 35 11 30 2 -6 -2 -42 -9
-80z m-22 -94 c3 -5 2 -12 -3 -15 -5 -3 -9 1 -9 9 0 17 3 19 12 6z m519 -35
c-3 -15 -8 -25 -11 -23 -2 3 -1 17 3 31 3 15 8 25 11 23 2 -3 1 -17 -3 -31z
m-527 -63 c-3 -10 -5 -4 -5 12 0 17 2 24 5 18 2 -7 2 -21 0 -30z m324 -10
c-12 -20 -14 -14 -5 12 4 9 9 14 11 11 3 -2 0 -13 -6 -23z m-488 -58 c3 -42 2
-58 -3 -40 -8 30 -13 122 -6 114 2 -2 6 -35 9 -74z m657 28 c-11 -17 -11 -17
-6 0 3 10 6 24 7 30 0 9 2 9 5 0 3 -7 0 -20 -6 -30z m-482 -9 c1 -14 7 -34 13
-45 6 -12 9 -23 6 -25 -5 -5 -37 70 -37 86 0 22 16 8 18 -16z m300 -4 c-7 -10
-14 -18 -15 -16 -6 6 9 36 18 36 5 0 4 -9 -3 -20z m163 -37 c-8 -15 -10 -15
-11 -2 0 17 10 32 18 25 2 -3 -1 -13 -7 -23z m-611 -79 c0 -8 4 -12 10 -9 5 3
7 0 4 -8 -10 -27 72 -95 146 -120 10 -4 9 -6 -5 -6 -25 -1 -81 32 -118 69 -27
28 -67 108 -48 95 6 -3 11 -13 11 -21z m573 12 c-26 -43 -105 -116 -127 -116
-6 0 3 9 20 19 17 11 49 40 70 65 38 46 52 58 37 32z m-213 0 c0 -2 -15 -14
-34 -25 -31 -20 -36 -20 -67 -6 l-34 15 35 -5 c20 -3 48 1 65 9 37 17 35 17
35 12z m60 -136 c-26 -16 -109 -30 -177 -30 -37 0 -63 3 -60 6 4 4 41 7 82 8
42 1 79 6 83 12 4 6 20 10 35 9 15 -1 30 2 33 7 3 5 9 7 12 3 4 -3 0 -10 -8
-15z"/>
<path d="M9624 5211 c-80 -13 -168 -58 -217 -110 -81 -86 -113 -231 -72 -328
19 -47 80 -107 97 -97 7 4 8 2 4 -4 -4 -7 -3 -12 3 -12 5 0 0 -11 -11 -23 -12
-13 -67 -98 -124 -188 l-103 -164 106 -3 c68 -2 110 1 119 9 8 6 48 70 90 143
89 153 105 173 147 178 l32 3 -22 -150 c-12 -82 -22 -158 -22 -168 -1 -16 9
-17 101 -15 l103 3 11 80 c16 106 56 370 97 633 l33 212 -86 0 c-48 0 -120 2
-161 4 -41 3 -97 1 -125 -3z m346 -71 c-41 -281 -49 -320 -59 -320 -5 0 -5 17
0 38 22 104 29 186 17 193 -9 6 -8 10 5 15 18 7 24 54 7 54 -5 0 -10 5 -10 10
0 6 6 9 12 8 7 -2 14 8 16 21 2 15 0 21 -7 16 -6 -3 -8 -12 -4 -18 3 -7 -4 -3
-16 8 l-23 20 33 5 c19 3 35 6 35 5 1 0 -2 -25 -6 -55z m-343 43 c-26 -2 -46
-7 -43 -11 2 -4 -9 -8 -26 -8 -17 -1 -34 -7 -39 -15 -5 -8 -9 -9 -9 -4 0 6 -7
1 -15 -9 -8 -11 -15 -16 -15 -12 0 5 -7 3 -15 -4 -10 -8 -15 -9 -15 -1 0 11
66 48 110 62 14 4 45 7 70 6 l45 -1 -48 -3z m246 0 c-7 -2 -19 -2 -25 0 -7 3
-2 5 12 5 14 0 19 -2 13 -5z m-452 -122 c-10 -10 -21 -17 -23 -15 -6 5 -24
-30 -42 -81 -8 -22 -15 -32 -15 -23 -2 51 89 195 97 154 2 -8 -6 -24 -17 -35z
m289 9 c-30 -4 -64 -11 -75 -15 -13 -4 -12 -1 5 9 14 9 46 15 75 14 l50 -1
-55 -7z m54 -18 c3 -4 1 -27 -4 -49 -25 -108 -39 -237 -28 -245 7 -3 16 -4 20
-2 4 3 8 0 8 -6 0 -8 -7 -9 -17 -5 -10 4 -44 11 -76 15 -68 9 -99 28 -117 69
-24 60 8 160 65 197 41 27 138 44 149 26z m17 -72 c-7 -36 -9 -39 -10 -15 -1
33 11 85 16 70 1 -6 -1 -30 -6 -55z m-226 20 c3 -5 1 -10 -4 -10 -6 0 -11 5
-11 10 0 6 2 10 4 10 3 0 8 -4 11 -10z m-24 -76 c-5 -16 -10 -21 -10 -12 -1
18 10 51 15 45 2 -1 -1 -16 -5 -33z m-186 -75 c3 -35 10 -65 15 -67 6 -2 10
-9 10 -16 0 -8 10 -26 22 -42 14 -18 16 -24 5 -15 -35 28 -58 79 -64 148 -3
37 -3 65 1 62 3 -3 8 -35 11 -70z m416 20 c-6 -24 -9 -28 -10 -12 -1 24 9 56
16 50 2 -3 0 -20 -6 -38z m-228 -42 c12 -19 12 -24 2 -24 -7 0 -15 11 -18 24
-2 13 -3 23 -2 23 2 0 10 -10 18 -23z m227 -14 c0 -10 -5 -25 -10 -33 -7 -11
-10 -7 -10 18 0 17 5 32 10 32 6 0 10 -8 10 -17z m140 -118 c-7 -53 -15 -93
-18 -91 -2 3 1 48 8 101 7 53 15 93 18 91 2 -3 -1 -48 -8 -101z m-288 36 c-5
-13 -6 -13 -10 0 -3 7 -10 20 -16 28 -9 12 -8 12 11 1 13 -8 19 -20 15 -29z
m104 1 c1 -7 0 -8 -3 -2 -2 5 -8 8 -12 6 -3 -2 -22 -1 -41 4 -35 8 -34 8 9 7
27 -1 45 -7 47 -15z m-88 -104 c-2 -5 -8 -9 -13 -9 -5 0 -11 4 -13 9 -1 5 4 9
13 9 9 0 14 -4 13 -9z m-223 -65 c-19 -32 -35 -62 -35 -66 0 -4 -11 -20 -25
-35 -14 -15 -23 -34 -20 -43 4 -11 -1 -18 -15 -22 -11 -3 -20 -4 -20 -2 0 5
98 164 122 198 33 47 29 30 -7 -30z m311 5 c-4 -24 -10 -61 -12 -83 -3 -22 -9
-66 -13 -98 -5 -37 -4 -60 2 -64 12 -7 103 -5 128 3 13 4 18 22 22 82 5 84 14
133 28 166 10 23 9 11 -13 -153 -7 -57 -17 -95 -25 -98 -7 -3 -10 -9 -7 -14 3
-5 -31 -9 -75 -9 -69 0 -81 2 -81 17 0 16 3 37 31 216 6 42 14 77 17 77 2 0 1
-19 -2 -42z m-153 -24 c-14 -25 -27 -43 -30 -40 -5 5 14 41 36 69 23 28 21 20
-6 -29z m-95 -163 c-51 -82 -45 -79 -149 -82 l-95 -4 25 41 c26 42 42 53 22
16 -8 -15 -7 -23 3 -31 15 -13 84 -12 93 2 2 4 12 2 20 -5 13 -10 18 -8 34 11
11 13 19 37 19 53 0 23 4 29 15 24 8 -3 14 -2 14 2 -3 16 2 23 11 17 6 -4 2
-21 -12 -44z m-108 29 c0 -5 -2 -10 -4 -10 -3 0 -8 5 -11 10 -3 6 -1 10 4 10
6 0 11 -4 11 -10z"/>
<path d="M4932 4973 c-48 -338 -92 -666 -92 -682 0 -11 33 -13 198 -8 167 4
206 8 259 27 72 25 145 84 175 143 26 52 34 143 18 201 -13 47 -59 99 -98 111
-22 6 -19 9 27 30 115 54 165 216 99 323 -14 23 -40 44 -77 61 -54 25 -64 26
-266 29 l-210 4 -33 -239z m49 172 c-6 -35 -9 -41 -10 -20 -1 30 9 78 15 73 2
-2 -1 -26 -5 -53z m72 38 c-7 -2 -21 -2 -30 0 -10 3 -4 5 12 5 17 0 24 -2 18
-5z m64 1 c-3 -3 -12 -4 -19 -1 -8 3 -5 6 6 6 11 1 17 -2 13 -5z m71 -1 c-10
-2 -26 -2 -35 0 -10 3 -2 5 17 5 19 0 27 -2 18 -5z m230 -9 c40 -16 92 -61 92
-78 0 -6 -5 -3 -11 7 -5 9 -21 17 -34 17 -18 0 -25 6 -25 19 0 24 -24 31 -125
38 -44 3 -82 7 -84 9 -13 12 155 2 187 -12z m-175 -101 c-7 -2 -19 -2 -25 0
-7 3 -2 5 12 5 14 0 19 -2 13 -5z m284 -30 c-3 -10 -5 -4 -5 12 0 17 2 24 5
18 2 -7 2 -21 0 -30z m-407 -99 c-7 -47 -14 -83 -17 -81 -2 3 1 42 7 88 5 46
11 90 11 99 1 10 3 9 6 -3 3 -11 -1 -57 -7 -103z m172 92 c52 -32 33 -148 -30
-179 -31 -16 -142 -31 -142 -20 0 5 7 57 16 116 l17 109 61 -7 c33 -4 68 -13
78 -19z m67 -80 c2 -25 -18 13 -23 44 l-6 35 14 -35 c8 -19 15 -39 15 -44z
m168 17 c-3 -10 -5 -2 -5 17 0 19 2 27 5 18 2 -10 2 -26 0 -35z m-570 -5 c-3
-7 -5 -2 -5 12 0 14 2 19 5 13 2 -7 2 -19 0 -25z m-1 -44 c-5 -19 -4 -24 6
-18 8 5 7 -1 -3 -16 -20 -32 -34 -154 -16 -144 7 4 5 -1 -4 -12 -10 -11 -22
-56 -29 -107 -7 -48 -15 -86 -18 -83 -7 7 19 186 27 186 3 0 6 19 7 43 2 73 8
116 15 111 4 -2 5 11 2 31 -4 24 -2 35 7 35 8 0 10 -8 6 -26z m389 -18 c0 -13
-3 -22 -6 -20 -4 2 -15 -6 -25 -17 -19 -21 -66 -49 -81 -49 -4 0 10 10 31 23
22 12 46 37 55 54 19 39 26 41 26 9z m168 7 c-10 -30 -53 -82 -76 -94 -14 -7
-8 3 17 27 21 21 42 49 47 61 10 27 21 32 12 6z m-294 -97 c-8 -9 -99 -12 -99
-4 0 4 23 8 52 8 28 0 49 -2 47 -4z m211 -92 c0 -9 -34 0 -47 13 -22 20 -14
24 17 8 17 -9 30 -18 30 -21z m-218 -16 c8 -5 -8 -8 -43 -7 -30 2 -61 -1 -67
-5 -13 -8 -17 6 -5 17 9 10 99 6 115 -5z m45 -14 c-3 -3 -12 -4 -19 -1 -8 3
-5 6 6 6 11 1 17 -2 13 -5z m9 -37 c31 -36 32 -99 4 -145 -26 -42 -90 -71
-154 -72 l-49 0 7 48 c3 26 11 82 17 126 l12 78 70 -4 c61 -3 72 -7 93 -31z
m-196 -67 c-18 -86 -25 -85 -11 3 4 26 4 47 0 47 -5 0 -1 9 8 20 9 11 18 18
19 17 1 -1 -6 -40 -16 -87z m410 43 c0 -23 -26 7 -27 31 -2 21 -2 21 13 2 8
-11 14 -26 14 -33z m-172 -14 c-3 -8 -7 -3 -11 10 -4 17 -3 21 5 13 5 -5 8
-16 6 -23z m173 -42 c-10 -9 -11 -8 -5 6 3 10 9 15 12 12 3 -3 0 -11 -7 -18z
m-11 -77 c-9 -22 -9 -20 -5 15 6 51 7 54 12 30 2 -12 -1 -32 -7 -45z m-175 3
c-9 -15 -13 -19 -10 -8 4 11 10 29 13 40 3 11 7 14 9 8 3 -7 -3 -24 -12 -40z
m-402 7 c-3 -12 -8 -19 -11 -16 -5 6 5 36 12 36 2 0 2 -9 -1 -20z m167 -14 c0
-3 -4 -8 -10 -11 -5 -3 -10 -1 -10 4 0 6 5 11 10 11 6 0 10 -2 10 -4z m205
-36 c-3 -5 -11 -10 -16 -10 -6 0 -7 5 -4 10 3 6 11 10 16 10 6 0 7 -4 4 -10z
m195 0 c0 -31 -139 -144 -156 -127 -3 2 9 10 26 17 16 7 30 17 30 22 0 5 4 7
9 4 9 -6 38 24 64 67 18 28 27 34 27 17z m-577 -57 c-3 -21 -9 -45 -15 -53 -6
-11 -8 -5 -4 19 3 18 6 44 6 58 0 13 4 22 9 19 5 -3 7 -23 4 -43z m325 23
c-13 -12 -41 -14 -118 -6 -25 2 -15 5 35 10 39 4 76 7 83 8 11 2 11 -1 0 -12z
m-114 -112 c99 1 164 -2 145 -6 -26 -5 -333 -12 -383 -9 -5 1 -3 8 4 15 8 10
19 12 33 7 12 -4 103 -7 201 -7z"/>
<path d="M6548 4982 c-61 -369 -100 -486 -168 -508 -26 -9 -37 -9 -42 -1 -10
17 -14 1 -46 -200 l-28 -183 98 0 c94 0 98 1 98 22 0 47 23 150 37 163 12 12
54 15 225 15 l210 0 -7 -42 c-4 -24 -11 -69 -15 -100 l-6 -58 96 0 96 0 27
183 c31 205 31 207 16 207 -6 0 -9 -7 -5 -15 4 -12 -3 -15 -37 -14 l-42 2 35
7 c19 4 28 8 19 9 -35 2 -42 27 -30 103 13 90 88 561 96 606 l6 32 -298 0
-298 0 -37 -228z m82 199 c0 -5 -6 -11 -14 -14 -8 -3 -16 -29 -20 -66 -4 -33
-12 -63 -18 -67 -6 -4 -8 1 -5 12 5 16 27 132 27 141 0 2 7 3 15 3 8 0 15 -4
15 -9z m47 3 c-3 -3 -12 -4 -19 -1 -8 3 -5 6 6 6 11 1 17 -2 13 -5z m46 -1
c-7 -2 -19 -2 -25 0 -7 3 -2 5 12 5 14 0 19 -2 13 -5z m144 0 c-20 -2 -52 -2
-70 0 -17 2 0 4 38 4 39 0 53 -2 32 -4z m90 1 c-3 -3 -12 -4 -19 -1 -8 3 -5 6
6 6 11 1 17 -2 13 -5z m101 -1 c-10 -2 -26 -2 -35 0 -10 3 -2 5 17 5 19 0 27
-2 18 -5z m97 -30 c-3 -21 -11 -42 -16 -47 -11 -13 -11 -4 0 27 10 25 0 34
-49 50 -8 3 5 6 29 6 l43 1 -7 -37z m-24 -143 c-7 -38 -9 -40 -10 -14 -1 41
12 107 16 79 2 -11 -1 -40 -6 -65z m-264 54 c-3 -3 -12 -4 -19 -1 -8 3 -5 6 6
6 11 1 17 -2 13 -5z m43 2 c0 -11 -19 -15 -25 -6 -3 5 1 10 9 10 9 0 16 -2 16
-4z m30 -44 c0 -9 -7 -60 -16 -112 -14 -86 -64 -427 -64 -435 0 -2 -54 -5
-120 -7 -66 -2 -120 1 -120 5 0 5 11 33 25 64 38 82 70 201 96 353 12 74 26
140 30 145 4 6 42 9 88 7 68 -3 81 -6 81 -20z m-197 -26 c-11 -87 -21 -104
-20 -30 1 45 6 71 13 71 8 0 10 -15 7 -41z m-166 -8 c-3 -7 -5 -2 -5 12 0 14
2 19 5 13 2 -7 2 -19 0 -25z m374 -59 l-11 -34 5 34 c3 18 6 48 7 65 l1 31 4
-31 c2 -18 -1 -47 -6 -65z m-392 -51 c-4 -24 -5 -53 -2 -65 3 -13 1 -23 -5
-23 -5 0 -9 -10 -8 -22 1 -13 -3 -36 -10 -53 -7 -16 -18 -49 -25 -73 -21 -71
-22 -39 -1 45 24 93 42 191 42 222 0 12 4 20 9 17 4 -3 5 -25 0 -48z m553 7
c-2 -19 -6 -35 -8 -35 -2 0 -4 16 -4 35 0 19 4 35 8 35 4 0 6 -16 4 -35z
m-171 -31 c-5 -16 -10 -21 -10 -12 -1 18 10 51 15 45 2 -1 -1 -16 -5 -33z
m-232 -48 c-7 -31 -14 -54 -16 -52 -3 2 1 30 7 61 6 31 14 54 17 52 3 -3 -1
-31 -8 -61z m386 -28 c-5 -29 -10 -47 -13 -40 -5 17 8 106 15 99 3 -3 2 -30
-2 -59z m-160 -7 c-1 -21 -8 -47 -14 -57 -10 -16 -11 -11 -6 26 4 25 7 51 8
58 0 6 4 12 8 12 4 0 6 -17 4 -39z m-249 -66 c-4 -14 -12 -25 -18 -25 -9 0 -9
3 0 12 7 7 12 21 12 32 0 10 3 17 6 13 4 -3 4 -18 0 -32z m233 -42 c0 -5 -4
-17 -9 -28 -8 -18 -9 -17 -9 8 -1 15 4 27 9 27 6 0 10 -3 9 -7z m148 -45 c-2
-13 -4 -5 -4 17 -1 22 1 32 4 23 2 -10 2 -28 0 -40z m-170 -55 c-3 -10 -5 -2
-5 17 0 19 2 27 5 18 2 -10 2 -26 0 -35z m-413 -5 c-4 -13 -7 -27 -6 -31 1 -5
-2 -6 -7 -3 -6 4 -5 18 2 36 13 34 23 33 11 -2z m567 -58 c-9 -23 -10 -23 -10
12 -1 20 2 45 7 55 6 14 8 12 10 -12 2 -17 -1 -42 -7 -55z m-428 20 c-3 -10
-12 -25 -21 -32 -13 -11 -12 -8 2 20 19 36 27 41 19 12z m268 -13 c-10 -9 -11
-8 -5 6 3 10 9 15 12 12 3 -3 0 -11 -7 -18z m-534 -68 c-12 -7 -15 -14 -9 -22
7 -8 5 -16 -4 -25 -12 -11 -14 -7 -14 23 0 30 3 35 23 35 20 -1 20 -2 4 -11z
m431 4 c-16 -2 -40 -2 -55 0 -16 2 -3 4 27 4 30 0 43 -2 28 -4z m339 -40 c-3
-10 -5 -4 -5 12 0 17 2 24 5 18 2 -7 2 -21 0 -30z m-794 -53 c-3 -11 -7 -20
-9 -20 -2 0 -4 9 -4 20 0 11 4 20 9 20 5 0 7 -9 4 -20z m167 -34 c0 -3 -7 -11
-15 -19 -8 -8 -20 -46 -27 -85 -7 -39 -17 -70 -23 -69 -5 1 -8 7 -6 12 1 6 4
20 5 32 0 13 4 23 9 23 4 0 7 9 7 21 0 26 29 89 41 89 5 0 9 -2 9 -4z m410 -5
c-19 -11 -390 -11 -390 0 0 4 91 8 203 8 114 0 196 -3 187 -8z m200 -6 c0 -8
-4 -15 -10 -15 -5 0 -7 7 -4 15 4 8 8 15 10 15 2 0 4 -7 4 -15z m-794 -62 c-3
-38 -9 -80 -12 -95 l-6 -28 71 0 c46 0 70 -4 66 -10 -3 -5 -40 -10 -82 -10
-73 0 -75 1 -69 23 3 12 11 59 17 105 7 45 14 82 17 82 2 0 2 -30 -2 -67z
m642 32 c-3 -14 -1 -25 4 -25 5 0 2 -7 -7 -16 -13 -14 -14 -19 -3 -25 7 -5 8
-9 2 -9 -6 0 -11 -7 -11 -15 0 -8 4 -15 9 -15 4 0 8 -11 8 -25 0 -23 4 -25 46
-25 25 0 43 4 40 9 -4 5 5 4 19 -2 21 -10 22 -13 7 -19 -9 -4 -48 -7 -85 -7
l-69 -1 6 38 c3 20 8 62 12 92 3 30 8 58 11 63 9 15 15 6 11 -18z m137 -75
c-7 -41 -14 -66 -15 -55 -3 28 0 54 11 99 16 60 18 38 4 -44z"/>
<path d="M7362 5181 c-2 -26 -114 -789 -127 -868 l-6 -33 104 0 105 0 11 78
c19 120 26 167 76 482 26 162 49 312 52 333 l6 37 -110 0 -109 0 -2 -29z m73
0 c-11 -5 -23 -7 -27 -5 -14 9 -17 -2 -43 -173 -18 -123 -18 -116 -2 -107 7 5
6 1 -3 -10 -8 -10 -15 -23 -16 -30 -1 -6 -5 -38 -9 -70 -7 -58 -23 -116 -24
-86 -1 15 23 174 54 370 8 52 15 101 15 108 0 7 14 12 38 11 29 0 33 -2 17 -8z
m88 2 c-13 -2 -33 -2 -45 0 -13 2 -3 4 22 4 25 0 35 -2 23 -4z m2 -240 c-42
-263 -42 -266 -44 -232 0 14 6 70 14 125 9 54 18 117 21 139 3 22 9 62 14 88
12 61 12 70 0 62 -5 -3 -10 -2 -10 3 0 6 7 12 15 16 8 3 15 16 16 28 0 13 3
18 5 11 3 -7 -11 -115 -31 -240z m-220 -324 l-15 -54 5 48 c5 48 13 72 21 64
2 -2 -3 -28 -11 -58z m164 -19 c-5 -36 -12 -91 -16 -123 -3 -32 -10 -60 -14
-63 -12 -7 3 129 25 224 13 55 16 31 5 -38z m-179 -85 c-6 -30 -8 -33 -9 -13
-1 25 8 62 14 56 2 -2 -1 -21 -5 -43z m-5 -72 c-3 -16 -7 -41 -9 -58 -2 -16
-8 -39 -12 -49 -5 -14 -4 -17 4 -12 7 4 12 3 12 -2 0 -7 99 -9 133 -3 4 0 7
13 7 29 0 15 5 34 11 42 8 12 9 10 5 -10 -3 -14 -6 -37 -6 -52 l0 -27 -90 -3
-89 -3 4 40 c3 22 7 49 9 60 3 11 5 32 5 48 1 15 5 27 11 27 5 0 7 -12 5 -27z"/>
<path d="M7740 5200 c0 -11 -94 -645 -115 -775 -8 -49 -15 -102 -15 -117 l0
-28 99 0 99 0 6 28 c3 15 17 105 32 200 l27 172 129 0 c130 0 130 0 125 -22
-8 -31 -57 -346 -57 -364 0 -11 21 -14 103 -14 l104 0 21 143 c12 78 44 286
72 461 27 176 50 321 50 323 0 2 -49 3 -108 3 l-109 0 -24 -172 -24 -173 -122
-3 c-119 -3 -123 -2 -123 18 0 22 36 268 45 308 5 22 4 22 -105 22 -63 0 -110
-4 -110 -10z m195 -22 c-1 -13 -3 -38 -4 -55 0 -18 -5 -33 -9 -33 -5 0 -6 20
-2 45 l7 45 -56 2 -56 1 60 7 c33 4 61 7 61 8 1 1 0 -8 -1 -20z m-139 5 c-4
-5 -13 -8 -19 -8 -6 0 -14 -11 -18 -25 -4 -14 -7 -18 -8 -8 -2 29 11 48 32 48
11 0 17 -3 13 -7z m426 -28 c-2 -19 -6 -35 -8 -35 -2 0 -4 16 -4 35 0 19 4 35
8 35 4 0 6 -16 4 -35z m126 28 c-10 -2 -28 -2 -40 0 -13 2 -5 4 17 4 22 1 32
-1 23 -4z m30 -141 c-6 -45 -14 -82 -18 -82 -5 0 -4 17 0 38 4 20 11 59 15 85
3 27 8 47 11 45 2 -3 -1 -41 -8 -86z m-622 52 c-6 -31 -16 -45 -16 -21 0 18
10 47 16 47 3 0 2 -12 0 -26z m156 -46 c-8 -8 -9 -4 -5 13 4 13 8 18 11 10 2
-7 -1 -18 -6 -23z m293 -23 c-4 -25 -9 -44 -12 -41 -2 2 -1 25 2 51 4 25 9 44
12 41 2 -2 1 -25 -2 -51z m-470 -60 c-10 -31 -13 -37 -10 -16 3 18 5 45 5 59
0 17 3 23 10 16 6 -6 4 -27 -5 -59z m172 18 c-3 -10 -5 -2 -5 17 0 19 2 27 5
18 2 -10 2 -26 0 -35z m-4 -38 c-3 -9 -8 -14 -10 -11 -3 3 -2 9 2 15 9 16 15
13 8 -4z m284 -32 c-3 -10 -5 -4 -5 12 0 17 2 24 5 18 2 -7 2 -21 0 -30z
m-295 -20 c-3 -16 -7 -22 -10 -15 -4 13 4 42 11 42 2 0 2 -12 -1 -27z m-176
-45 c-6 -62 -23 -137 -25 -108 -1 21 23 170 27 170 2 0 1 -28 -2 -62z m625
-35 c-6 -49 -16 -110 -21 -138 -5 -27 -16 -90 -24 -140 -16 -92 -12 -32 5 85
21 141 29 197 35 243 4 26 9 45 12 42 3 -3 0 -44 -7 -92z m-164 55 c-3 -8 -6
-5 -6 6 -1 11 2 17 5 13 3 -3 4 -12 1 -19z m-100 -34 c-3 -3 -12 -4 -19 -1 -8
3 -5 6 6 6 11 1 17 -2 13 -5z m-387 -154 c-5 -22 -8 -27 -9 -13 -1 21 9 56 14
51 2 -2 0 -19 -5 -38z m163 -17 c-7 -68 -15 -68 -11 -1 2 31 6 54 9 52 4 -2 5
-25 2 -51z m266 30 c2 -2 -5 -3 -17 -3 -14 0 -22 6 -22 16 0 14 3 15 18 3 9
-7 19 -15 21 -16z m35 -60 c-4 -16 -8 -44 -8 -65 -1 -20 -4 -34 -7 -32 -7 4
-40 -208 -34 -214 2 -3 31 -5 64 -6 87 -2 85 -14 -3 -18 -64 -2 -76 0 -76 13
0 8 11 87 25 175 14 87 25 162 25 167 0 4 5 7 11 7 7 0 9 -9 3 -27z m-470 -39
c-8 -19 -16 -58 -18 -87 -1 -29 -5 -57 -8 -63 -3 -5 -5 -21 -3 -36 2 -16 -1
-28 -6 -28 -5 0 -9 -13 -9 -30 0 -32 0 -32 85 -32 43 0 59 5 67 22 5 9 7 3 5
-15 -1 -17 -8 -30 -14 -29 -7 1 -46 2 -86 3 l-74 1 17 113 c10 61 21 138 24
169 5 42 11 56 21 52 11 -5 11 -11 -1 -40z m132 -159 c-8 -44 -15 -70 -15 -57
-1 12 -7 22 -13 23 -10 0 -10 2 0 6 6 2 10 9 6 14 -3 5 -1 9 5 9 5 0 13 26 17
58 4 31 9 50 11 42 2 -9 -3 -51 -11 -95z m458 -57 c-4 -29 -7 -59 -7 -65 0 -7
-4 -13 -8 -13 -4 0 -6 27 -5 59 0 32 4 54 8 47 5 -7 8 -5 8 7 0 9 2 17 5 17 3
0 3 -24 -1 -52z"/>
<path d="M8570 5205 c0 -2 -11 -73 -25 -157 -24 -150 -115 -754 -115 -763 0
-3 45 -5 100 -5 95 0 100 1 104 23 3 12 15 83 26 157 12 74 25 153 29 175 l7
40 127 3 127 3 -5 -28 c-13 -73 -44 -274 -50 -320 l-7 -53 104 0 104 0 28 183
c16 100 48 306 72 457 24 151 44 278 44 283 0 4 -47 7 -105 7 -100 0 -105 -1
-109 -22 -6 -25 -46 -309 -46 -320 0 -5 -59 -8 -131 -8 -71 0 -128 3 -125 8 2
4 14 68 25 142 11 74 23 150 27 168 l7 32 -107 0 c-58 0 -106 -2 -106 -5z
m189 -19 c-7 -7 -32 -9 -79 -6 -44 3 -43 4 15 9 59 6 73 5 64 -3z m456 -53
c-4 -38 -14 -79 -22 -93 -9 -16 -12 -18 -8 -5 4 11 9 48 12 83 5 56 4 62 -13
63 -18 1 -11 4 34 18 2 1 0 -29 -3 -66z m-622 37 c-3 -11 -7 -20 -9 -20 -2 0
-4 9 -4 20 0 11 4 20 9 20 5 0 7 -9 4 -20z m490 13 c-7 -2 -21 -2 -30 0 -10 3
-4 5 12 5 17 0 24 -2 18 -5z m70 0 c-7 -2 -19 -2 -25 0 -7 3 -2 5 12 5 14 0
19 -2 13 -5z m-414 -124 c-5 -51 -12 -101 -14 -109 -6 -22 4 144 12 180 11 58
12 24 2 -71z m-164 11 c-4 -34 -9 -59 -12 -56 -3 3 -2 32 2 66 4 34 9 59 12
56 3 -3 2 -32 -2 -66z m463 20 c-2 -27 -7 -50 -12 -50 -5 0 -6 14 -2 31 3 17
6 40 6 50 0 11 2 19 5 19 3 0 4 -22 3 -50z m-3 -80 c3 -5 1 -10 -4 -10 -6 0
-11 5 -11 10 0 6 2 10 4 10 3 0 8 -4 11 -10z m152 -32 c-3 -7 -5 -2 -5 12 0
14 2 19 5 13 2 -7 2 -19 0 -25z m-628 -30 c-5 -28 -6 -55 -3 -60 3 -4 0 -8 -7
-8 -8 0 -10 12 -5 38 3 20 6 47 6 60 0 12 4 22 9 22 4 0 4 -23 0 -52z m464 27
c4 -8 2 -17 -3 -20 -6 -4 -10 3 -10 14 0 25 6 27 13 6z m155 -72 c-5 -32 -11
-60 -15 -63 -3 -3 -3 13 1 35 3 22 5 50 6 63 0 12 4 22 8 22 5 0 5 -26 0 -57z
m-466 -15 c-10 -10 -10 -8 -2 37 1 6 4 2 7 -9 3 -10 0 -23 -5 -28z m295 -10
c-2 -13 -4 -5 -4 17 -1 22 1 32 4 23 2 -10 2 -28 0 -40z m-468 -53 c-2 -25 -7
-51 -12 -57 -5 -8 -6 2 -3 27 3 22 6 48 6 58 0 9 2 17 5 17 3 0 5 -20 4 -45z
m238 9 c-3 -3 -12 -4 -19 -1 -8 3 -5 6 6 6 11 1 17 -2 13 -5z m103 2 c0 -11
-19 -15 -25 -6 -3 5 1 10 9 10 9 0 16 -2 16 -4z m78 -3 c-10 -2 -26 -2 -35 0
-10 3 -2 5 17 5 19 0 27 -2 18 -5z m193 -79 c-6 -32 -11 -73 -11 -93 0 -23 -3
-32 -10 -25 -6 6 -6 30 -1 64 5 30 8 70 6 87 -2 18 1 30 6 27 5 -3 9 1 10 8 0
9 2 10 5 1 3 -6 0 -38 -5 -69z m-640 -95 c-6 -27 -11 -64 -12 -82 0 -18 -3
-26 -6 -18 -3 8 0 53 8 100 7 47 15 78 17 68 2 -9 -1 -40 -7 -68z m145 46 c-7
-20 -1 -19 20 3 17 16 17 16 10 -3 -9 -20 -35 -192 -36 -232 0 -13 -4 -23 -10
-23 -5 0 -7 6 -5 13 2 6 7 46 9 87 3 41 6 75 6 75 8 0 8 55 0 60 -13 8 -13 35
1 35 6 0 9 -7 5 -15z m80 2 c4 -4 -2 -7 -14 -7 -12 0 -22 4 -22 9 0 10 26 9
36 -2z m206 6 c-6 -2 -10 -9 -6 -14 3 -5 -9 -9 -25 -9 -21 0 -31 5 -31 15 0
11 10 15 38 14 20 0 31 -3 24 -6z m22 -139 c-8 -32 -17 -74 -20 -93 -2 -19 -7
-37 -11 -40 -9 -9 6 91 23 149 21 71 28 58 8 -16z m163 9 c-3 -10 -5 -4 -5 12
0 17 2 24 5 18 2 -7 2 -21 0 -30z m-642 -105 c-4 -35 -9 -75 -10 -91 -2 -32
-15 -50 -15 -21 0 29 23 174 28 174 2 0 1 -28 -3 -62z m632 40 c-3 -8 -6 -5
-6 6 -1 11 2 17 5 13 3 -3 4 -12 1 -19z m-20 -123 l-12 -90 -88 -1 -87 -1 1
31 c1 22 3 25 6 9 4 -20 10 -21 81 -20 70 2 77 4 78 22 0 11 3 29 6 40 4 11
10 43 13 70 4 28 9 45 11 40 3 -6 -2 -51 -9 -100z m-457 35 c0 -5 -5 -10 -11
-10 -5 0 -7 5 -4 10 3 6 8 10 11 10 2 0 4 -4 4 -10z m291 -41 c-9 -23 -10 -22
-10 11 -1 23 2 31 9 24 7 -7 7 -19 1 -35z m-305 -47 c-11 -10 -14 3 -7 38 l6
35 3 -33 c2 -19 1 -36 -2 -40z m-81 -26 c38 -1 66 2 69 8 2 6 5 3 5 -7 1 -16
-8 -18 -84 -16 -78 1 -85 3 -85 22 0 16 3 17 15 7 8 -7 44 -13 80 -14z"/>
</g>
</svg>
